<svg id="Layer_1" data-name="Layer 1" xmlns="http://www.w3.org/2000/svg" viewBox="0 0 270 84" height="60"><defs><style>.cls-1{fill:#d92432;}.cls-2{fill:#231f20;}</style></defs><title>City of London</title><path class="cls-1" d="M31.79,21.13l-.37,0a8.75,8.75,0,0,0-1.11,2.35,1.87,1.87,0,0,0,.34.19,16.77,16.77,0,0,1,1.14-2.59m1.33,2.71a27.65,27.65,0,0,1,1.19-2.69,3.46,3.46,0,0,0-.69-.07c-.39.67-1.13,2.33-1.31,2.78.26,0,.51,0,.81,0m-1.49,0a19.74,19.74,0,0,1,1.31-2.81s-.42,0-.58,0A18.61,18.61,0,0,0,31,23.85a1.17,1.17,0,0,0,.59,0m20.86,43.7c1.06.48,1.77,2.79-.56,3.84,1.19-3-3.43-5.78-8.23-2.88.16-.2.32-.39.47-.59,5-3.19,13.23.4,16.39-4.28.19,1.21-1,2.91-3.43,3.38,2.6.32,3.92,1.57,5.68,1.93-1.73.06-6-2.18-10.33-1.4m-16.4,5.31C27.67,67.67,24,56.6,23.47,44.27c1-.1,3.42-.32,6.15-.48A65.85,65.85,0,0,0,33.51,67c-.32-4.75-.77-14.31-.66-23.35,1.08,0,2.15,0,3.17,0l.06,0,.06,0c4.77-.07,10.71.47,12.56.66C48.22,56.6,44.5,67.67,36.08,72.88M20.36,71.49c-2.33-1.05-1.62-3.36-.56-3.84-4.29-.78-8.59,1.47-10.33,1.41,1.77-.36,3.08-1.62,5.68-1.93-2.47-.47-3.62-2.16-3.43-3.38C14.87,68.39,23,64.87,28,68c.16.2.32.4.48.59-4.77-2.81-9.33-.06-8.15,2.93m3.2-34.88c1.52-.24,3.8-.49,6.21-.67,0,1.38-.09,2.93-.12,4.63-2.39.16-4.55.38-6.24.55q0-2.24.15-4.51m2.86-4.91c1-1.15,3.3-2.18,4.43-3.31a9.84,9.84,0,0,1,.63,3c-.42.54-1.85.9-2.33,1.69A6.17,6.17,0,0,0,29,34.2l-.88.07c.57-.94-.15-1.75-1.1-2,.12,1-.34,1.45-.66,1.51-.69-.19-.54-1.44,0-2.08M30,26a1.6,1.6,0,0,1-.82-1.89c.14-.14.36-.16.58-.36.38-.35.33-2,2.15-3.61a13.67,13.67,0,0,1,4.3-.23c.12.08,1.36.56,1.62,4.61A16.1,16.1,0,0,0,40.49,24C38.62,25.55,30.38,26.11,30,26m1.4-8.2a4.29,4.29,0,0,1,1.9,0,3.74,3.74,0,0,1,1.88,0,5,5,0,0,1,2.39,0,3.43,3.43,0,0,1,2,0c1.55-.37,2.36.38,2.36.87s-.11.44-.29.54c-.63.35-.45-.62-1.8-.93.59.3.63,1,1.29,1.09C38.86,19.7,39.3,18,37.71,18c.68.2.78,1,1.44,1.34-2.25.23-2.05-1.44-3.71-1.4.82.24.88,1.07,1.76,1.35-2.39.33-2-1.47-3.77-1.34.84.37,1,1.09,1.78,1.28C33,19.81,33.06,18,31.6,18.11c.66.16.94.92,1.48,1.14-1.25.46-1.21-.58-2.29-.57.42.17.58.5,1,.69-2.09.31-1.82-1.74-.4-1.59m8.46,4.59a.49.49,0,1,1-.51.49.5.5,0,0,1,.51-.49m2.52,9.75a2.78,2.78,0,0,0-1.26.21,6.58,6.58,0,0,1-.21-6.11c-.08,2.11.24,5.12,1.47,5.9m3.4-.41c.57.65.71,1.89,0,2.08-.32-.06-.78-.56-.66-1.52a2.21,2.21,0,0,0-.83.43,1.7,1.7,0,0,0-1.14-.51,5.33,5.33,0,0,1-1.31-3.35c1.21,1,3,1.87,3.92,2.86m-1.93,1.85a1.23,1.23,0,0,0,.19.71l-2.48-.18a4.08,4.08,0,0,1,2.3-.53m-4-1.77C38.78,31,38,28.13,39,26c.21-.57.9-.93.82-.46a12.16,12.16,0,0,0,0,6.22m-8.37,3.3c.93-1.77,1.14-4.16-.12-7.54,1,.9,1.53,3.23,1.61,4.37a5.37,5.37,0,0,0,.32-2.76c.74,2.93.18,7-.54,7.63a3.49,3.49,0,0,1-1.14-1.24,4.77,4.77,0,0,0,.94,1.74c4.67-1.58,8.05-5.37,10.72-4.37a5.51,5.51,0,0,0-3.58,1.71c-1.58-.24-2.77,2.75-7.7,4.24-.62-.39-1.29-2.37-1.53-3.07s-.48-.86-.81-.87a3.54,3.54,0,0,1,.12-1.76,3.74,3.74,0,0,1,1.36-.75,9,9,0,0,0,.34,2.66m17.19,1.52q.14,2.27.15,4.51c-3.13-.32-7.85-.78-12.67-.8-1.07,0-2.13,0-3.17.07q0-.56,0-1.12c2.64-.87,4.67-2.74,5.92-3.52a91.72,91.72,0,0,1,9.74.86M20.48,35.18c0,1.33,0,2.58,0,3.8a4,4,0,0,0-1.43-2c-.8,3.85-5,3.86-7,1.47.76-3,4.5-4.69,8.21-5.6a3.29,3.29,0,0,0,1,2.17l-.7.1m-2.56,7.33a3.59,3.59,0,0,0,2.57-2.29c0,1.95,0,3.8.14,5.66a7.3,7.3,0,0,0-2.71-3.37m34-9.59c3.71.91,7.45,2.58,8.21,5.6-2,2.39-6.23,2.38-7-1.47a4.08,4.08,0,0,0-1.43,2c0-1.22,0-2.48,0-3.81l-.69-.1a3.29,3.29,0,0,0,.94-2.16m-.4,13c.09-1.86.13-3.71.14-5.66a3.6,3.6,0,0,0,2.57,2.3,7.31,7.31,0,0,0-2.71,3.36M65,68.57a4.08,4.08,0,0,0,1.56-2.86C63.76,68.11,59.84,67,59.84,67s4.59-1.52.82-6.67c.24,4.72-4.76,5.32-8.55,5.32A18.87,18.87,0,0,0,45,66.73,33.06,33.06,0,0,0,50.79,53.5c.19-1.31.34-2.56.46-3.78l0,.12c.36,2,1.1,2.81,4.39,4.18s3.1,3.53,1.38,4.86c2.55.73,4.34-3.13,1.6-6.61a2.86,2.86,0,0,0-.13-3.87,3.7,3.7,0,0,1-3.81,1.75,2.86,2.86,0,0,0,3.83-.72c.66,1.55-.17,2.82-1,2.83,1.35,1,2.28,2.26,2,4.21-.24-1.42-3.47-2.62-5.16-3.59-1.31-.76-2.09-2.84-.23-3.9a21.88,21.88,0,0,0,5.13-3.34c.24,1,1.24,3.27,5,4.37C60,43.78,65.86,43.5,63,37.8c-.48,5.42-8,6.7-8,6.7,6.28-2.51,8.27-6.21,7.12-9.87-.77-2.43-3.1-4.83-8.15-6.48a4.46,4.46,0,0,0,2.21-.94c-3,.7-3.84.6-5.12.42,6.18,1.71,9.38,3.83,10,6.7a4.88,4.88,0,0,1-.46,3.56c-1.12-3.75-7-5.33-9.13-5.75a2.72,2.72,0,0,1-1.22,2.44L46.45,34a2.2,2.2,0,0,0,.42-1.95c-.3-1.24-1.54-2.76-5-5.19,0-.3.05-.59.08-.87a22.44,22.44,0,0,0,7.21,3.54c-2.12-.91-5.47-2.61-7.13-4.3,0-.06,0-.13,0-.19s0-.41,0-.62a12.51,12.51,0,0,0,6.65,2.83c-1.49-.41-7.33-3.1-10.14-7.49l1.82.07a16.32,16.32,0,0,0,4,4.21,12.65,12.65,0,0,1-2.95-4.25h0a1.11,1.11,0,0,0,.92-1.1c0-.47-.23-1.51-2.84-1.37h-.13a10.57,10.57,0,0,0-2.8-.47c-.12-.75-.72-1.11-1,0a16.57,16.57,0,0,0-2.44.44,5,5,0,0,0-1.8.11c-1.14.07-1.59.66-1.61,1.25a1.14,1.14,0,0,0,1.09,1.18,35.88,35.88,0,0,1-3.13,4.23,14.9,14.9,0,0,0,2-1.66l.11-.17c-.13.44-.24.83-.35,1.09a2.06,2.06,0,0,1-.62.35s-.37.16-.39.4v.09c-1.84,2.08-8.78,5.35-11.64,6.7C20,29.56,24,28.33,28.48,25a2.76,2.76,0,0,0,.16.63,40.41,40.41,0,0,1-5.42,3.94A31.94,31.94,0,0,0,29,26.23a1.14,1.14,0,0,0,.28.24,3.17,3.17,0,0,0,.52.08,2.56,2.56,0,0,1,.37.44c-3.35,2.34-4.55,3.84-4.85,5.05a2.2,2.2,0,0,0,.45,2L22,34.59a2.72,2.72,0,0,1-1.25-2.46c-2.14.42-8,2-9.13,5.75a4.87,4.87,0,0,1-.46-3.56c.63-2.86,3.83-5,10-6.7-1.29.18-2.13.28-5.12-.42a4.48,4.48,0,0,0,2.21.94c-5.05,1.64-7.39,4-8.15,6.48-1.16,3.66.84,7.35,7.12,9.87,0,0-7.53-1.28-8-6.7-2.87,5.7,3,6-1.26,12.22,3.73-1.1,4.72-3.37,5-4.36A22,22,0,0,0,18,49c1.87,1.05,1.09,3.13-.23,3.89-1.68,1-5.1,2.29-5.14,3.65-.36-2,.6-3.23,2-4.27-.79,0-1.62-1.27-1-2.83.2.26,1.39,1.88,3.83.71a3.69,3.69,0,0,1-3.81-1.75,2.86,2.86,0,0,0-.14,3.87c-.46.62-2.25,3.1-.86,5.58a2.12,2.12,0,0,0,2.45,1c-1.68-1.32-1.89-3.49,1.4-4.86s4-2.23,4.38-4.19l0-.11c.12,1.21.27,2.46.46,3.78a33.15,33.15,0,0,0,5.79,13.28,19,19,0,0,0-7-1c-3.79,0-8.79-.6-8.55-5.33-3.77,5.15.82,6.67.82,6.67S8.51,68.19,5.76,65.8a4.1,4.1,0,0,0,1.55,2.86C7,68.7,3.07,69.2,1,65.93,2.31,74,14.6,69.76,16.51,68.79c-.78.74-2.35,2.79-.8,4.23,0-2,2.19-3.06,2.75-3.17a3.13,3.13,0,0,0,2.39,2.29c-.24-1.36-.07-3.57,4.45-3.33,2.17.12,4.3,1.56,6.09,3l.15.12a27.24,27.24,0,0,0,4.54,3.53,27.37,27.37,0,0,0,4.51-3.49l.3-.24,6.09-3c4.51-.24,4.68,2,4.45,3.33a3.12,3.12,0,0,0,2.39-2.29c.56.11,2.71,1.15,2.75,3.17,1.56-1.44,0-3.49-.8-4.23,1.91,1,14.19,5.23,15.51-2.86-2.07,3.27-6,2.76-6.32,2.72M48.56,25.64a7.38,7.38,0,0,1-3.32-1c2.94,2.3,7.4,2.93,11.62,2.15a11.56,11.56,0,0,1,6.34.64,9.42,9.42,0,0,0-4.82-3.17c1.75-2.82.47-4.82,3.33-6.61a3.2,3.2,0,0,0-3.51.06,5.26,5.26,0,0,0-3.37-1.86,4.39,4.39,0,0,0-4.6,1.89,5.14,5.14,0,0,1,7.19-.23c-3.43-1.67-5.84,1.63-6,5.22A7.41,7.41,0,0,1,50,19a2.85,2.85,0,0,0-2.43,2.91c-.45-.6-1.68-4,.68-5.62a2.5,2.5,0,0,1-.71-2.26c1.53.93,3.82.67,6.33,1.26-2.43-1.48-5.06-.55-6.93-2.28a3.72,3.72,0,0,0,.6,3.2,5.11,5.11,0,0,0,.54,7.3,3.53,3.53,0,0,1,1.44-3.47c.25,1.87,1.9,3.62,2.17,4.1,0-.93.35-4.64,1.67-4.54.81.07,1.45,1.62,1.16,2.73-.4,1.52-1.56,3.79-6,3.29m-13.79-2c.17-.37.51-1.47.8-2.33l-.64-.11c-.37.9-1,2.33-1.05,2.56.22,0,.74-.08.9-.11M15.31,26.74c4.22.78,8.68.15,11.62-2.15a7.37,7.37,0,0,1-3.33,1c-4.4.5-5.56-1.77-6-3.29-.3-1.11.34-2.66,1.16-2.73,1.33-.11,1.65,3.61,1.68,4.53.27-.48,1.92-2.23,2.17-4.1a3.53,3.53,0,0,1,1.45,3.47,5.11,5.11,0,0,0,.54-7.3,3.73,3.73,0,0,0,.6-3.2c-1.87,1.73-4.49.81-6.93,2.28,2.51-.6,4.8-.34,6.33-1.27a2.51,2.51,0,0,1-.71,2.26c2.35,1.65,1.13,5,.68,5.62A2.85,2.85,0,0,0,22.17,19a7.47,7.47,0,0,1-1.37,3.67c-.21-3.59-2.62-6.9-6-5.22a5.14,5.14,0,0,1,7.18.23,4.39,4.39,0,0,0-4.6-1.89A5.25,5.25,0,0,0,14,17.65a3.2,3.2,0,0,0-3.51-.06c2.87,1.79,1.59,3.8,3.34,6.61A9.43,9.43,0,0,0,9,27.38a11.51,11.51,0,0,1,6.34-.64M37.4,24.57a37.64,37.64,0,0,1-6.7.23,2.19,2.19,0,0,1-.9-.78,2.36,2.36,0,0,0,.48,1.29,28.26,28.26,0,0,0,7.12-.74M33.77,9.64c.16,1.56.92,2.39,1.28,2.23s-.4-3.11,1.32-4.62c-.8,1.63,0,2.93.28,4.46.19,1-.12,2.55-.64,2.83s-2.79-1.36-2.23-4.9m-1.1,3.53a3.68,3.68,0,0,0,3.41,2.65,2.31,2.31,0,0,0,2.47-2c-1.44.52-.72-.8.28-1.32a2.64,2.64,0,0,0,.87-3.81c-.24,2-2.25,2.83-2,1.69.16-.8,2.51-3.51.79-6.66-.24,1-.18,1.85-1,1.67s-1.69-3.37-.2-4.74a3.23,3.23,0,0,0-2.55,3.43c.21,1.32.87,3,0,3.47-.48.28-.83.07-.93-.33-.18-.76,0-2.25-1.46-2.78,1,2-.44,5.7.3,8.67"/><path class="cls-2" d="M93.55,29.84h-.23c-.28-.56-1.09-2.19-4.44-2.19-3.89,0-6,2.56-6,7a7.9,7.9,0,0,0,1.42,4.86,5,5,0,0,0,4.21,2.12,6.53,6.53,0,0,0,5.38-2.65l.26.16-.26,2.3A12.06,12.06,0,0,1,88,42.87c-4.54,0-8.31-2.81-8.31-8,0-4.68,2.86-8.42,9.07-8.42a12.59,12.59,0,0,1,5.44,1.16Z"/><path class="cls-2" d="M96.94,26.59c.44,0,1.3.14,1.65.14a14.4,14.4,0,0,0,1.65-.14,79.09,79.09,0,0,0-.26,8.1c0,3.47,0,6,.23,7.86-.54,0-1.09-.14-1.63-.14s-1.17.12-1.68.14c.26-2.77.26-6.61.26-10.59a47.79,47.79,0,0,0-.23-5.37"/><path class="cls-2" d="M110.18,39.36a24.61,24.61,0,0,0,.16,3.19c-.68-.07-1.42-.14-1.7-.14a15.69,15.69,0,0,0-1.58.14c.09-1.77.23-3.56.23-5.33l0-6.49c0-.86,0-1.67,0-2.58h-1.16c-.21,0-2.44,0-3.63.16a3.27,3.27,0,0,0,0-1.72c1.84.12,4.42.14,6.21.14s4,0,6.21-.14a6.22,6.22,0,0,0-.12.88,4.51,4.51,0,0,0,.12.84c-1.37-.14-3-.16-4.63-.16,0,.84,0,1.72,0,2.6v8.61Z"/><path class="cls-2" d="M125,37.17c0,2,.07,3.21.16,5.37-.54,0-1.07-.14-1.61-.14s-1.12.09-1.56.14c.07-1.81.14-4.86.14-6.31l-1.37-2.37c-1.19-2-3.16-5.26-4.37-7.28a18,18,0,0,0,1.91.14,11.35,11.35,0,0,0,1.91-.14c1.21,2.56,2.09,4.4,4.07,7.86a65.58,65.58,0,0,0,4-7.86,7.49,7.49,0,0,0,1.35.14,2.66,2.66,0,0,0,1-.14c-.35.63-2,3.33-2.4,3.89-1,1.67-2,3.42-2.93,5.09a1.72,1.72,0,0,0-.3.74v.86h0Z"/><path class="cls-2" d="M141.38,28.35c-.07,1.77-.07,4-.07,6,0,3.7,0,4.54.72,5.44a4.28,4.28,0,0,0,3.56,1.42,4,4,0,0,0,3.88-2.4,9.39,9.39,0,0,0,.3-3.14c0-3,0-6.07-.21-9.09a7.32,7.32,0,0,0,1,.14,8.53,8.53,0,0,0,1.09-.14l-.07,1.11c-.12,2-.19,6.79-.23,9.14,0,2.74-.84,4-2.37,5a7.7,7.7,0,0,1-3.91,1c-2.79,0-6.14-.88-6.65-4.49,0-.33,0-1,0-1.24V30.77c0-1.19,0-3-.12-4.19a13.49,13.49,0,0,0,1.63.14,10.65,10.65,0,0,0,1.51-.14l-.07,1.77Z"/><path class="cls-2" d="M155,33.12c0-2.19,0-4.37,0-6.54a4.55,4.55,0,0,0,.56,0,4.15,4.15,0,0,0,.53,0c2.21,2.44,4.28,4.61,7.1,7.35l2.75,2.7c.44.42.65.58,1.16,1V32.47c0-2-.12-4-.28-5.89a3.93,3.93,0,0,0,1,.14,3.63,3.63,0,0,0,1-.14c-.21,2.81-.26,4.47-.26,7.86,0,1.35,0,4.7,0,5.91,0,.51,0,1.72,0,2.3a3.39,3.39,0,0,0-.47,0,3.53,3.53,0,0,0-.49,0c-3-3.21-8.68-8.91-11.14-11.17,0,3.16,0,4.86.07,7.33,0,1.35,0,1.58.21,3.72-.26,0-.72-.14-1-.14a3.84,3.84,0,0,0-.93.14l.19-3.23c0-.63.07-2.37.07-3V33.12h0Z"/><path class="cls-2" d="M172.09,26.59c.44,0,1.3.14,1.65.14a14.27,14.27,0,0,0,1.65-.14,79.71,79.71,0,0,0-.25,8.1c0,3.47,0,6,.23,7.86-.53,0-1.09-.14-1.62-.14s-1.16.12-1.67.14c.26-2.77.26-6.61.26-10.59a48.07,48.07,0,0,0-.24-5.37"/><path class="cls-2" d="M186.87,36.56c.21-.53,2.81-7,3.72-10a6.23,6.23,0,0,0,1.07.14,6.35,6.35,0,0,0,1.12-.14c-1,2-2.42,5.26-3.32,7.4-1.19,2.81-2.3,5.67-3.33,8.56a2.76,2.76,0,0,0-.86-.14,3.87,3.87,0,0,0-1.07.14c-1-3-1.16-3.4-2.77-7.24-.35-.84-1.83-4.51-2.13-5.23-.24-.56-1.3-3-1.52-3.49a10.18,10.18,0,0,0,1.89.14,15.14,15.14,0,0,0,1.72-.14,89.61,89.61,0,0,0,3,8.47c.49,1.26,1.07,2.47,1.6,3.7l.88-2.19Z"/><path class="cls-2" d="M197.75,33.49c1.19,0,3.79,0,5-.16a3,3,0,0,0-.11.84,2.38,2.38,0,0,0,.11.79c-.6,0-1.21-.1-1.79-.12-1.07,0-2.16,0-3.23,0V41.1c.6,0,3.58-.07,5.56-.16a1.88,1.88,0,0,0-.12.77,2.35,2.35,0,0,0,.12.84c-1.4-.09-2.79-.14-4.28-.14s-2.86,0-4.35.14c0-1,.09-1.93.12-2.91,0-1.35.09-4.19.09-5.26s0-5.47-.21-7.79c1.14.07,3,.14,4.21.14,1.07,0,2.6-.09,4.28-.14a2.85,2.85,0,0,0,0,1.61L201,28.08c-.86,0-1.1,0-3.23,0v5.47Z"/><path class="cls-2" d="M209.46,33.87c.44,0,1,.07,1.6.07a3,3,0,0,0,3.19-3.21,2.7,2.7,0,0,0-1-2.42,3.54,3.54,0,0,0-2.16-.58c-.44,0-1.31.09-1.65.12v6Zm4.46,1.7c.35.49.86,1.26,1.21,1.74,1.84,2.58,2.47,3.4,3.93,5.23A18.08,18.08,0,0,0,217,42.4a11.08,11.08,0,0,0-1.88.14c-.35-.54-.86-1.4-1.21-1.93-1.19-1.84-2.63-3.89-3.88-5.65h-.56v3.3c0,.68.09,3.68.09,4.28A14.79,14.79,0,0,0,208,42.4a12.83,12.83,0,0,0-1.6.14c.19-4.58.21-5.09.21-9.58,0-3,0-3.37-.16-6.37a21.71,21.71,0,0,0,2.33.12c.6,0,3.3-.12,3.84-.12a4.77,4.77,0,0,1,3.65,1.14,3.62,3.62,0,0,1,1.07,2.6c0,2.58-1.93,3.91-4,4.3Z"/><path class="cls-2" d="M221.32,39.06c1.07,2.33,2.23,2.67,3.6,2.67a2.88,2.88,0,0,0,1.14-5.58c-.65-.28-1.74-.7-2.4-1-2.26-1-2.93-2.19-2.93-4.12s1.21-4.65,5.42-4.65a8.44,8.44,0,0,1,3.86,1,10.9,10.9,0,0,0-.72,2.21H229a2.91,2.91,0,0,0-3-2,2.46,2.46,0,0,0-2.75,2.51c0,1.7,1.19,2.16,3.23,3,1.79.7,2.49,1,3.16,1.7a4.63,4.63,0,0,1,1.14,3.07c0,2.37-1.65,5.1-5.91,5.1a9.39,9.39,0,0,1-4.35-1.19,9.47,9.47,0,0,0,.53-2.63h.33Z"/><path class="cls-2" d="M233.44,26.59c.44,0,1.3.14,1.65.14a14.34,14.34,0,0,0,1.65-.14,79.09,79.09,0,0,0-.26,8.1c0,3.47,0,6,.23,7.86-.54,0-1.09-.14-1.63-.14s-1.16.12-1.68.14c.26-2.77.26-6.61.26-10.59a47,47,0,0,0-.23-5.37"/><path class="cls-2" d="M247.15,39.36a24.42,24.42,0,0,0,.16,3.19c-.68-.07-1.42-.14-1.7-.14a15.7,15.7,0,0,0-1.58.14c.1-1.77.23-3.56.23-5.33l0-6.49c0-.86,0-1.67,0-2.58H243c-.21,0-2.44,0-3.63.16a3.27,3.27,0,0,0,0-1.72c1.84.12,4.42.14,6.21.14s4,0,6.21-.14a6.11,6.11,0,0,0-.12.88,4.44,4.44,0,0,0,.12.84c-1.37-.14-3-.16-4.63-.16,0,.84,0,1.72,0,2.6v8.61Z"/><path class="cls-2" d="M262.2,37.17c0,2,.07,3.21.16,5.37-.54,0-1.07-.14-1.61-.14s-1.12.09-1.56.14c.07-1.81.14-4.86.14-6.31L258,33.87c-1.19-2-3.16-5.26-4.37-7.28a18,18,0,0,0,1.91.14,11.4,11.4,0,0,0,1.91-.14c1.21,2.56,2.09,4.4,4.07,7.86a65.73,65.73,0,0,0,4-7.86,7.49,7.49,0,0,0,1.35.14,2.67,2.67,0,0,0,1-.14c-.35.63-2,3.33-2.4,3.89-1,1.67-2,3.42-2.93,5.09a1.69,1.69,0,0,0-.3.74v.86Z"/><path class="cls-2" d="M82.65,56.2c0-1,0-1.26-.07-3.33,0-.49-.07-2.58-.09-3a7.44,7.44,0,0,0,1.61.14,9.3,9.3,0,0,0,1.63-.14c-.16,3.52-.23,6.44-.23,10,0,1.63,0,3.14.07,4.42H86a53,53,0,0,0,5.4-.21,2.77,2.77,0,0,0-.11.93,2.17,2.17,0,0,0,.11.79c-1.19,0-3.19-.14-4.44-.14-1.49,0-2.75,0-4.44.14,0-.37.16-5.77.16-6.35V56.2Z"/><path class="cls-2" d="M101.33,64.95c4,0,5.49-3.72,5.49-7,0-3.79-1.42-7-5.49-7s-5.49,3.86-5.49,7c0,3.47,1.49,7,5.49,7M110,57.62c0,5.19-3.51,8.51-8.68,8.51-4.84,0-8.68-2.86-8.68-8,0-5.9,4-8.51,8.75-8.51,4.35,0,8.61,2.37,8.61,8"/><path class="cls-2" d="M112.87,56.39c0-2.19,0-4.37,0-6.54a4.55,4.55,0,0,0,.56,0,4,4,0,0,0,.53,0c2.21,2.44,4.28,4.6,7.1,7.35l2.75,2.7c.44.42.65.58,1.16,1V55.74c0-2-.12-4-.28-5.89a3.84,3.84,0,0,0,1,.14,3.66,3.66,0,0,0,1-.14c-.21,2.81-.25,4.47-.25,7.86,0,1.35,0,4.7,0,5.91,0,.51,0,1.73,0,2.31a3.56,3.56,0,0,0-.47,0,3.33,3.33,0,0,0-.49,0c-3-3.21-8.68-8.91-11.14-11.17,0,3.16,0,4.86.07,7.32,0,1.35,0,1.59.21,3.73-.26,0-.72-.14-1-.14a3.67,3.67,0,0,0-.93.14l.19-3.23c0-.63.07-2.37.07-3V56.39Z"/><path class="cls-2" d="M132.92,61.23c0,1.07.07,2.16.12,3.23.51,0,2.58.11,3.16.11,1.54,0,5.49-1.14,5.49-7.12,0-3-1.42-6.37-6.26-6.37-.79,0-1.6,0-2.4.12,0,.93-.12,1.88-.12,2.81v7.21Zm8.49,3.26a8.6,8.6,0,0,1-5,1.32c-1.42,0-2.86-.12-4.28-.12-.72,0-1.47.07-2.19.12l.14-4.26c0-1,0-1.53,0-4.31,0-1.47,0-2.91,0-4.37,0-1-.07-2-.12-3,.63,0,1.28.12,1.91.12,1.26,0,2.63-.12,4-.12,2,0,4.44.1,6.37,1.61a7.21,7.21,0,0,1,2.68,5.91c0,3.28-1.28,5.72-3.47,7.12"/><path class="cls-2" d="M156,64.95c4,0,5.49-3.72,5.49-7,0-3.79-1.42-7-5.49-7s-5.49,3.86-5.49,7c0,3.47,1.49,7,5.49,7m8.68-7.33c0,5.19-3.51,8.51-8.68,8.51-4.84,0-8.68-2.86-8.68-8,0-5.9,4.05-8.51,8.75-8.51,4.35,0,8.61,2.37,8.61,8"/><path class="cls-2" d="M167.52,56.39c0-2.19,0-4.37,0-6.54a4.52,4.52,0,0,0,.56,0,4,4,0,0,0,.54,0c2.21,2.44,4.28,4.6,7.1,7.35l2.75,2.7c.44.42.65.58,1.16,1V55.74c0-2-.12-4-.28-5.89a3.83,3.83,0,0,0,1,.14,3.64,3.64,0,0,0,1-.14c-.21,2.81-.25,4.47-.25,7.86,0,1.35,0,4.7,0,5.91,0,.51,0,1.73,0,2.31a3.63,3.63,0,0,0-.46,0,3.33,3.33,0,0,0-.49,0c-3-3.21-8.68-8.91-11.14-11.17,0,3.16,0,4.86.07,7.32,0,1.35,0,1.59.21,3.73-.26,0-.72-.14-1-.14a3.66,3.66,0,0,0-.93.14l.18-3.23c0-.63.07-2.37.07-3V56.39h0Z"/><path class="cls-1" d="M46.93,81.31l.62-.87.55-.79c.17-.24.31-.45.41-.62a.86.86,0,0,0,.23,0A.8.8,0,0,0,49,79c0,.3,0,.63,0,1s0,.75,0,1.14v.74l.37,0,.29,0a.88.88,0,0,0,0,.22.93.93,0,0,0,0,.22l-.29,0h-.37v.28c0,.18,0,.36,0,.54s0,.33,0,.44h-.59c0-.12,0-.26,0-.45s0-.36,0-.53v-.28H47.35l-.61,0-.43,0v-.12l.61-.87m1.47-1.67-.36.5-.44.63-.43.63c-.14.2-.24.37-.32.5h1.56V79.65Zm-5.18,3.67a.88.88,0,0,0,.36.07,1,1,0,0,0,.62-.2,1.5,1.5,0,0,0,.42-.53,2.76,2.76,0,0,0,.24-.73,4.24,4.24,0,0,0,.08-.81h0a1.24,1.24,0,0,1-.42.46,1.18,1.18,0,0,1-.67.18,1.29,1.29,0,0,1-1-.35,1.35,1.35,0,0,1-.35-1,1.55,1.55,0,0,1,.1-.57,1.29,1.29,0,0,1,.3-.45,1.32,1.32,0,0,1,.47-.3A1.57,1.57,0,0,1,44,79a1.54,1.54,0,0,1,.57.11,1.17,1.17,0,0,1,.47.33,1.68,1.68,0,0,1,.33.6,2.83,2.83,0,0,1,.13.9,3.92,3.92,0,0,1-.13,1,2.66,2.66,0,0,1-.39.85,1.82,1.82,0,0,1-.62.56,1.69,1.69,0,0,1-.84.2l-.32,0L43,83.5,43,83.33a1,1,0,0,0-.08-.18l0,0a1.23,1.23,0,0,0,.31.2m1.44-3.83a.81.81,0,0,0-.65-.29.77.77,0,0,0-.65.33,1.45,1.45,0,0,0-.25.89,1.27,1.27,0,0,0,.22.84.76.76,0,0,0,.6.25.75.75,0,0,0,.42-.11.93.93,0,0,0,.3-.28,1.35,1.35,0,0,0,.19-.4,1.76,1.76,0,0,0,.06-.47,1.14,1.14,0,0,0-.25-.76m-5.75,2.05a1.38,1.38,0,0,1,.75-.52v0a.87.87,0,0,1-.26-.11,1,1,0,0,1-.24-.19.93.93,0,0,1-.24-.63.93.93,0,0,1,.09-.41,1.05,1.05,0,0,1,.26-.34,1.17,1.17,0,0,1,.4-.23,1.45,1.45,0,0,1,.52-.09,1.75,1.75,0,0,1,.58.08,1.21,1.21,0,0,1,.4.21.9.9,0,0,1,.23.31,1,1,0,0,1,.08.38,1,1,0,0,1-.19.59,1.06,1.06,0,0,1-.56.39v0l.28.08a1.2,1.2,0,0,1,.32.19,1.13,1.13,0,0,1,.26.34,1.11,1.11,0,0,1,.11.52,1.46,1.46,0,0,1-.12.6,1.37,1.37,0,0,1-.32.46,1.29,1.29,0,0,1-.48.28,1.73,1.73,0,0,1-.58.1,2.12,2.12,0,0,1-.59-.08,1.19,1.19,0,0,1-.48-.25,1.15,1.15,0,0,1-.31-.41,1.29,1.29,0,0,1-.12-.56,1.32,1.32,0,0,1,.22-.75m2-1.82a.76.76,0,0,0-.13-.27.63.63,0,0,0-.22-.19.67.67,0,0,0-.33-.07.68.68,0,0,0-.33.07.58.58,0,0,0-.22.19.82.82,0,0,0-.13.27,1.38,1.38,0,0,0,0,.33,1.36,1.36,0,0,0,0,.33.83.83,0,0,0,.13.28.66.66,0,0,0,.22.19.68.68,0,0,0,.33.07.67.67,0,0,0,.33-.07.7.7,0,0,0,.22-.19.8.8,0,0,0,.13-.28,1.3,1.3,0,0,0,0-.33,1.29,1.29,0,0,0,0-.33M41,81.81a1.08,1.08,0,0,0-.18-.36.79.79,0,0,0-.28-.24.85.85,0,0,0-.38-.08.84.84,0,0,0-.38.08.77.77,0,0,0-.28.24,1.1,1.1,0,0,0-.18.36,1.49,1.49,0,0,0-.06.45,1.52,1.52,0,0,0,.06.46,1.1,1.1,0,0,0,.18.36.8.8,0,0,0,.28.23.79.79,0,0,0,.38.09.8.8,0,0,0,.38-.09.86.86,0,0,0,.29-.23,1.13,1.13,0,0,0,.18-.36,1.49,1.49,0,0,0,.06-.46,1.46,1.46,0,0,0-.06-.45m-5.15-1.95a.55.55,0,0,0-.2-.22v0l.78-.34.75-.36,0,0c0,.3,0,.59,0,.88s0,.58,0,.88v1.12c0,.3,0,.59,0,.87s0,.56,0,.84h-.63c0-.28,0-.56,0-.84s0-.57,0-.86V79.42Zm-4.59-.61h-.75l-.37,0-.32,0a.88.88,0,0,0,0-.22,1,1,0,0,0,0-.21l.87,0h1.73l.87,0a1,1,0,0,0,0,.22.87.87,0,0,0,0,.21l-.32,0-.37,0h-.75q0,.69,0,1.39V81.8c0,.3,0,.59,0,.88s0,.57,0,.84h-.66c0-.27,0-.56,0-.84s0-.58,0-.88V80.65c0-.47,0-.93,0-1.39m-4.56,3.64a1.15,1.15,0,0,0,.22.22,1.07,1.07,0,0,0,.3.17,1.13,1.13,0,0,0,.39.06,1,1,0,0,0,.4-.08.89.89,0,0,0,.49-.52,1,1,0,0,0,.07-.38.71.71,0,0,0-.16-.49,1.32,1.32,0,0,0-.39-.31c-.16-.08-.33-.15-.51-.22a2.75,2.75,0,0,1-.51-.25,1.37,1.37,0,0,1-.39-.39,1.1,1.1,0,0,1-.16-.63,1.28,1.28,0,0,1,.1-.51,1.15,1.15,0,0,1,.29-.4,1.41,1.41,0,0,1,.46-.26,1.82,1.82,0,0,1,.6-.09,1.74,1.74,0,0,1,.56.08,1.37,1.37,0,0,1,.44.24,1.44,1.44,0,0,0-.1.24,3.08,3.08,0,0,0-.08.32h-.08a1.66,1.66,0,0,0-.09-.21.75.75,0,0,0-.16-.21,1,1,0,0,0-.23-.16.77.77,0,0,0-.32-.06,1,1,0,0,0-.34.06.82.82,0,0,0-.27.17.77.77,0,0,0-.18.27.89.89,0,0,0-.06.34.73.73,0,0,0,.16.49,1.34,1.34,0,0,0,.39.31,4.47,4.47,0,0,0,.51.22,3.06,3.06,0,0,1,.51.24,1.31,1.31,0,0,1,.39.36,1,1,0,0,1,.16.59,1.56,1.56,0,0,1-.11.59,1.37,1.37,0,0,1-.32.48,1.4,1.4,0,0,1-.52.31,1.93,1.93,0,0,1-.69.11,1.66,1.66,0,0,1-.68-.11,1.88,1.88,0,0,1-.43-.25,1.68,1.68,0,0,0,.08-.28c0-.08,0-.19,0-.32h.08a1.82,1.82,0,0,0,.15.25m-3.66-3.13c0-.29,0-.57,0-.86l.6,0h1.2l.6,0a1,1,0,0,0,0,.2,1.1,1.1,0,0,0,0,.2l-.39,0-.38,0-.43,0h-.56c0,.14,0,.28,0,.41s0,.28,0,.44,0,.35,0,.51,0,.29,0,.38h.53l.43,0,.36,0,.31,0a1,1,0,0,0,0,.21,1,1,0,0,0,0,.2l-.41,0-.46,0h-.76s0,.08,0,.13,0,.11,0,.18v.66c0,.26,0,.47,0,.63s0,.29,0,.38h1l.46,0,.38-.05a.39.39,0,0,0,0,.11s0,.07,0,.1a.58.58,0,0,0,0,.17H23c0-.28,0-.57,0-.85s0-.57,0-.87V80.63c0-.29,0-.58,0-.87"/></svg>