<?xml version="1.0" encoding="UTF-8" standalone="no"?>
<svg
   
   xmlns="http://www.w3.org/2000/svg"
   version="1.1"
   height="60"
   width="139.24084"
   id="Layer_1">
  
  <defs
     id="defs101" />
  <path
     style="fill:#32276b"
     id="path4"
     d="m 16.840852,54.8 c -0.7,-0.5 -1,-1.5 -0.8,-2.2 0.2,-0.7 0.7,-1.1 1.3,-0.7 l 0.5,0.8 0.1,-0.2 h 0.1 l -0.3,1.2 -0.1,-0.1 c 0,-0.7 0,-1.1 -0.3,-1.4 -0.4,-0.3 -0.7,0 -0.8,0.8 -0.1,0.7 0,1.3 0.3,1.6 0.4,0.3 0.6,0.2 0.8,-0.3 h 0.2 c -0.2,0.7 -0.7,0.8 -1,0.5 m 2.3,1.4 c -0.8,-0.3 -1,-1.3 -1,-1.9 0.2,-0.6 0.8,-1.2 1.5,-0.9 1,0.4 1,1.4 1,2 -0.2,0.7 -0.7,1.2 -1.5,0.8 m 0.5,-2.5 c -0.3,-0.2 -0.7,0 -0.8,0.9 -0.2,1 0,1.3 0.4,1.4 0.4,0.2 0.7,-0.2 0.8,-0.8 0.2,-0.9 0,-1.4 -0.4,-1.5 z m 3.9,2.9 c -0.1,0 -0.2,0 -0.3,0.2 l -0.2,1 -0.2,-0.1 v -0.4 c -0.2,0.2 -0.5,0.3 -0.9,0.2 -0.7,-0.3 -1,-1 -0.9,-1.8 0.2,-0.8 0.8,-1.3 1.6,-1 0.3,0 0.5,0.3 0.6,0.5 l 0.2,-0.3 h 0.1 l -0.3,1.2 h -0.1 c 0,-0.6 0,-1 -0.5,-1.2 -0.3,0 -0.8,0 -1,1 -0.2,0.8 0,1.2 0.5,1.4 0.3,0 0.4,0 0.5,-0.2 v -0.4 -0.3 l -0.3,-0.1 v -0.2 l 1.3,0.4 v 0.1 h -0.1 m 3.3,-0.7 c -0.2,0 -0.3,0 -0.3,0.2 l -0.3,2.4 h -0.4 l -1.2,-2.4 -0.3,1.6 c 0,0.2 0,0.3 0.2,0.3 l 0.3,0.1 v 0.2 l -1.2,-0.3 v -0.2 l 0.3,0.1 0.2,-0.2 0.3,-2 c 0,-0.2 0,-0.2 -0.2,-0.3 h -0.2 v -0.2 l 0.9,0.2 1,2.1 0.2,-1.5 -0.1,-0.2 h -0.2 v -0.3 l 1.2,0.2 v 0.2 h -0.3 m 1.6,2.9 c -0.9,-0.1 -1.2,-1 -1.2,-1.6 0,-0.7 0.6,-1.5 1.4,-1.4 1,0 1.3,1 1.3,1.6 -0.1,0.7 -0.6,1.4 -1.5,1.4 m 0.2,-2.8 c -0.3,0 -0.7,0.3 -0.8,1.3 0,1 0.3,1.2 0.6,1.2 0.5,0 0.8,-0.4 0.8,-1.1 0,-1 -0.2,-1.4 -0.6,-1.4 z m 3,2.8 c -0.5,0 -0.7,-0.1 -0.8,-0.4 l -0.2,0.4 v -1.3 c 0.2,0.6 0.4,1 1,1 0.2,0 0.4,-0.1 0.4,-0.3 0,-0.9 -1.5,-0.3 -1.5,-1.6 0,-0.2 0.2,-0.8 0.9,-0.8 0.3,0 0.5,0.1 0.7,0.3 l 0.1,-0.3 h 0.1 v 1.1 h -0.2 c 0,-0.6 -0.2,-0.9 -0.7,-0.9 -0.3,0 -0.5,0.3 -0.5,0.5 0,0.7 1.6,0.2 1.6,1.4 0,0.4 -0.4,0.9 -1,0.9 m 3,-0.3 c -0.8,0.1 -1.3,-0.5 -1.4,-1.2 0,-0.8 0.5,-1.7 1.2,-1.8 0.3,0 0.5,0 0.8,0.2 v -0.3 h 0.2 v 1.1 h -0.1 c -0.1,-0.6 -0.4,-1 -0.8,-0.9 -0.4,0.1 -0.7,0.7 -0.6,1.5 0,0.7 0.3,1.1 0.7,1 0.5,0 0.8,-0.3 0.8,-1 h 0.2 c 0,0.7 -0.3,1.2 -1,1.3 m 2.5,-3.2 -0.1,0.3 v 0.8 h 0.1 c 0.4,-0.1 0.5,-0.1 0.5,-0.8 h 0.2 V 57 c -0.2,-0.6 -0.2,-0.6 -0.7,-0.5 v 1 c 0,0.2 0.1,0.2 0.2,0.2 l 0.5,-0.2 c 0.5,-0.1 0.5,-0.3 0.6,-1 l 0.1,-0.1 0.1,1 c -0.9,0.4 -1.6,0.6 -2.5,0.8 V 58 h 0.3 l 0.1,-0.4 -0.1,-2 c 0,-0.2 -0.1,-0.2 -0.2,-0.1 h -0.3 v -0.2 l 2.4,-0.6 v 1 c -0.2,-0.7 -0.4,-0.7 -0.7,-0.6 l -0.5,0.1 m 2.1,2 v -0.1 l 0.3,-0.1 c 0,0 0.1,-0.2 0,-0.4 l -0.1,-1.9 c 0,-0.2 -0.2,-0.2 -0.3,-0.1 h -0.1 l 1.6,-0.8 c 0.4,-0.2 0.8,0 0.9,0.3 0,0.3 -0.2,0.7 -0.5,0.9 0.3,0 0.4,0.2 0.5,0.8 0,0.2 0.1,0.2 0.2,0.1 v -0.7 l 0.2,-0.1 v 0.6 c 0.1,0.2 0,0.4 -0.4,0.6 -0.3,0.1 -0.5,0 -0.6,-0.3 0,-0.6 -0.2,-0.7 -0.5,-0.6 h -0.4 l 0.2,1 0.1,0.2 0.4,-0.1 v 0.1 l -1.5,0.6 m 1,-3.1 -0.2,0.1 -0.1,0.2 0.1,0.9 0.3,-0.1 c 0.4,-0.2 0.5,-0.6 0.5,-0.8 0,-0.5 -0.4,-0.4 -0.6,-0.3 z m 3.6,-2.5 0.3,1 h -0.2 c -0.2,-0.6 -0.4,-0.5 -0.6,-0.3 l -0.4,0.3 v 1.1 l 0.2,-0.1 c 0.3,-0.2 0.3,-0.3 0.2,-1 h 0.1 l 0.4,1.4 -0.2,0.1 c -0.1,-0.6 -0.1,-0.6 -0.5,-0.3 l 0.1,1 c 0,0.2 0,0.1 0.2,0 l 0.5,-0.3 c 0.2,-0.2 0.3,-0.5 0.2,-1.2 l 0.1,-0.1 0.3,1 a 16,16 0 0 1 -2.1,1.6 v -0.3 l 0.2,-0.1 c 0.1,-0.1 0.1,-0.2 0,-0.4 l -0.3,-1.8 c 0,-0.2 0,-0.3 -0.2,-0.2 l -0.2,0.2 V 53 l 1.9,-1.5 m -40.8,-7.4 c -0.2,-0.2 -0.3,-0.6 -0.2,-0.8 0.3,-0.5 0.3,-0.8 0,-1.1 V 42 l -0.5,0.8 V 43 l 0.2,0.3 v 0.1 l -1,-1.1 v -0.2 l 0.2,0.2 c 0.1,0 0.2,0.1 0.2,0 l 0.9,-1.6 v -0.4 l -0.2,-0.2 V 40 l 1.1,1.3 c 0.3,0.4 0.4,1 0.2,1.3 0,0.2 -0.3,0.2 -0.6,0 0.2,0.4 0.1,0.7 -0.1,1.2 V 44 c 0,0.1 0,0.1 0.1,0 l 0.2,-0.5 0.2,0.2 -0.2,0.5 c -0.1,0.2 -0.3,0.2 -0.5,0 m 0.4,-3 V 41 h -0.2 l -0.4,0.8 0.2,0.3 c 0.3,0.3 0.5,0.2 0.6,0 0.2,-0.4 0,-0.7 -0.2,-0.9 z m 0,3.4 0.1,-0.1 0.2,0.1 h 0.3 l 0.9,-1.8 v -0.3 l -0.3,-0.1 0.1,-0.2 1.8,1.5 -0.5,1 v -0.2 c 0.2,-0.6 0.1,-0.9 -0.1,-1.1 l -0.4,-0.3 h -0.2 l -0.4,0.9 c 0.4,0.3 0.5,0.3 0.8,-0.2 h 0.1 l -0.7,1.4 -0.1,-0.1 c 0.2,-0.6 0.2,-0.6 -0.1,-1 l -0.5,0.9 v 0.2 l 0.4,0.4 c 0.3,0.2 0.5,0.1 0.9,-0.4 h 0.1 l -0.5,1 -1.9,-1.6 m 4.3,2.9 c -0.2,0 -0.4,-0.3 -0.3,-0.7 0.3,-0.5 0.3,-0.7 0,-1 h -0.2 l -0.4,0.8 v 0.2 l 0.3,0.2 v 0.2 l -1.4,-0.8 0.1,-0.1 0.2,0.1 0.3,-0.1 0.8,-1.8 v -0.3 l -0.3,-0.1 0.1,-0.2 1.5,0.9 c 0.4,0.2 0.6,0.6 0.4,1 -0.1,0.3 -0.4,0.4 -0.7,0.3 0.1,0.3 0.1,0.5 -0.1,1 v 0.3 h 0.2 l 0.2,-0.6 0.2,0.1 -0.2,0.6 c -0.1,0.2 -0.3,0.3 -0.7,0 m 0.3,-2.8 h -0.2 c 0,-0.1 0,0 -0.1,0 l -0.4,0.8 0.2,0.2 c 0.4,0.2 0.7,0 0.8,-0.2 0.2,-0.4 0,-0.6 -0.3,-0.8 z m 3.6,1.5 c -0.1,0 -0.2,0 -0.3,0.2 l -1.6,2 h -0.2 v -2.7 l -0.1,-0.3 h -0.2 v -0.2 l 1.4,0.5 v 0.1 h -0.3 l -0.2,0.1 v 1.8 l 1,-1.4 -0.1,-0.3 h -0.2 v -0.2 l 1,0.3 v 0.2 h -0.2 m 1.6,3.2 v -0.3 h 0.5 l 0.5,-1.7 -1.5,1.8 h -0.2 V 47 l -0.7,1.7 c 0,0.1 0,0.2 0.2,0.2 h 0.2 v 0.3 l -1.1,-0.3 v -0.2 h 0.2 c 0.1,0.1 0.2,0 0.3,-0.1 l 0.7,-2 -0.1,-0.2 h -0.3 v -0.2 l 1.1,0.2 v 2 l 1.4,-1.6 1,0.1 v 0.2 h -0.4 c 0,0 -0.2,0 -0.2,0.2 l -0.6,1.9 0.1,0.3 h 0.2 v 0.2 l -1.4,-0.3 m 34.4,0.1 c -0.8,0.2 -1.4,-0.5 -1.6,-1.2 -0.2,-0.7 0.1,-1.6 0.9,-1.7 l 0.7,0.1 v -0.2 h 0.2 l 0.3,1 h -0.2 c -0.2,-0.6 -0.5,-0.9 -1,-0.8 -0.4,0 -0.5,0.6 -0.3,1.4 0.2,0.7 0.6,1.1 1,1 0.4,0 0.6,-0.4 0.5,-1 h 0.2 c 0.2,0.7 -0.1,1.1 -0.7,1.3 m 2.2,-0.6 v -0.2 h 0.2 c 0,0 0.2,-0.1 0,-0.3 l -0.2,-0.4 -0.7,0.2 v 0.5 c 0,0.2 0.1,0.2 0.2,0.2 h 0.2 l -1,0.4 V 49 h 0.2 c 0.1,0 0.2,-0.1 0.2,-0.3 v -2.6 l 0.3,-0.1 1.5,2 c 0,0.3 0.1,0.3 0.2,0.2 h 0.3 v 0.1 l -1.4,0.5 m -0.7,-1.9 v 1 l 0.6,-0.2 z m 3.4,-2 c -0.2,0 -0.2,0.1 -0.2,0.3 v 2.7 l -0.3,0.1 -1.5,-2 c -0.1,-0.2 -0.1,-0.2 -0.2,-0.1 h -0.2 v -0.1 l 1.2,-0.6 v 0.2 h -0.1 c -0.1,0 -0.2,0.2 0,0.3 l 0.9,1.4 v -1.8 c 0,-0.2 -0.1,-0.2 -0.2,-0.1 h -0.2 v -0.1 l 0.8,-0.4 v 0.1 m 1.9,2 c -0.3,0.2 -0.5,0.2 -0.7,0 v 0.4 h -0.2 l -0.3,-1 0.1,-0.2 c 0.3,0.5 0.6,0.9 1,0.6 0.2,-0.1 0.4,-0.4 0.3,-0.6 -0.2,-0.8 -1.3,0.5 -1.7,-0.7 0,-0.3 0,-1 0.5,-1.2 0.3,-0.2 0.5,-0.2 0.7,0 v -0.6 l 0.4,1.1 h -0.1 c -0.2,-0.5 -0.5,-0.7 -1,-0.4 -0.2,0.1 -0.2,0.4 -0.2,0.6 0.2,0.7 1.4,-0.5 1.7,0.6 0.2,0.5 0,1 -0.5,1.3 m 1.9,-1.2 -0.1,-0.3 0.2,-0.1 v -0.3 l -0.2,-0.4 -0.6,0.5 v 0.5 c 0,0.2 0.1,0.2 0.3,0.1 l 0.1,-0.1 v 0.2 l -0.7,0.6 V 46 c 0.2,-0.2 0.2,-0.2 0.2,-0.5 l -0.2,-2.7 0.2,-0.2 1.4,1.8 h 0.3 l 0.1,-0.1 0.1,0.2 -1.1,1 m -0.8,-1.9 0.1,1 0.4,-0.3 z m 2.6,-0.1 c -0.2,0.4 -0.3,0.4 -0.5,0.4 v 0.4 l -0.5,-1 0.1,-0.2 c 0.3,0.5 0.6,0.8 0.9,0.3 0.1,-0.2 0.2,-0.5 0.1,-0.7 -0.3,-0.8 -1,0.9 -1.4,-0.3 -0.1,-0.2 -0.2,-0.9 0.2,-1.4 0.2,-0.2 0.4,-0.3 0.5,-0.2 v -0.4 l 0.5,1 -0.1,0.1 c -0.3,-0.5 -0.5,-0.7 -0.8,-0.3 -0.2,0.3 -0.2,0.6 -0.1,0.7 0.2,0.7 1,-0.8 1.4,0.2 0.2,0.4 0.1,1 -0.2,1.5" />
  <path
     style="fill:#32276b"
     id="path6"
     d="m 59.840852,40.7 a 8.1,8.1 0 0 1 -2,-3.7 c 0,-0.7 -0.5,-1.3 -1.6,-1.3 -1.4,0 -2.5,0.8 -3.2,1.5 -0.5,0.6 -0.8,1.2 -0.7,1.7 l 0.1,0.4 2,2.3 c -3,2.4 -6.7,3.5 -10,4 5.4,-5.4 9,-12.7 9,-23.2 V 2.9 c -5.6,-1.4 -14.8,-2.9 -23.2,-2.9 -8.5,0 -17.6,1.5 -23.3,2.9 v 19.5 c 0,10.4 3.6,17.7 9,23 -3.4,-0.4 -7,-1.4 -10,-3.8 l 2,-2.3 0.1,-0.4 c 0,-0.5 -0.2,-1.1 -0.7,-1.7 a 4.4,4.4 0 0 0 -3.2,-1.5 c -1.1,0 -1.6,0.6 -1.7,1.3 -0.5,2 -1.4,3.2 -1.89999996,3.7 -1,1.2 -0.4,2.3 0.1,3.1 C 2.240852,46 6.340852,49.8 15.240852,51.1 l -0.8,2 c -0.3,0.8 0,1.5 1,2.3 2.5,2.2 7.7,4.6 14.7,4.6 7.1,0 12.3,-2.4 14.8,-4.6 1,-0.8 1.3,-1.5 1,-2.2 l -0.9,-2.1 c 9,-1.3 13.2,-5 14.8,-7.4 0.5,-0.8 1,-1.8 0,-3 m -29.7,13.9 c -3.7,0 -6.7,-1 -8.6,-1.8 0.4,-0.7 0.7,-1.5 0.9,-2.2 2.4,1.5 5,2.8 7.8,4 a 56,56 0 0 0 7.8,-4 c 0.2,0.7 0.5,1.5 1,2.2 -2,0.8 -5,1.8 -8.9,1.8 z" />
  <path
     style="fill:#ffffff"
     id="path8"
     d="m 17.140852,47.9 c -0.6,0 -0.8,0.2 -0.8,0.5 0,1.5 3,3.4 4.7,4.2 l 1,-2.3 -3,-2.1 a 8,8 0 0 0 -1.9,-0.3 m -12.3,-9.4 -0.8,1.2 1.6,1.6 1.4,-1.7 a 3,3 0 0 1 -2.2,-1.1" />
  <path
     style="fill:#ffffff"
     id="path10"
     d="m 4.840852,37.5 c 0.6,1 1.5,1.8 2.4,1.6 0.3,0 0.3,-0.2 0.3,-0.3 0,-0.4 -0.1,-0.8 -0.6,-1.3 a 3.8,3.8 0 0 0 -2.7,-1.3 c -1,0 -1.3,0.5 -1.3,1 0,0.4 0.2,1.2 0.9,2.1 l 1,-1.7" />
  <path
     style="fill:#ffffff"
     id="path12"
     d="m 2.540852,38 a 8.3,8.3 0 0 1 -1.5,3 c -0.69999996,0.7 -0.69999996,1.5 0,2.5 1.6,2.2 5.5,5.9 14.4,7 l 0.4,-2 c 0,-0.7 0.5,-1 1.2,-1 0.3,0 0.7,0 1.2,0.2 l -1.7,-1.5 c -8.5,-1.1 -12.8,-5.1 -14,-8 m 36.9,14.3 c 1.8,-0.7 4.5,-2.6 4.5,-4 0,-0.4 -0.1,-0.6 -0.7,-0.6 l -1.8,0.3 -3,2.1 c 0.2,0.8 0.6,1.5 1,2.2 m 13.9,-12.9 1.4,1.7 1.6,-1.6 -0.8,-1.3 a 3,3 0 0 1 -2.2,1.2" />
  <path
     style="fill:#ffffff"
     id="path14"
     d="m 52.840852,38.9 c 0,0 0,0.2 0.2,0.3 0.9,0.2 1.9,-0.6 2.4,-1.6 l 1.1,1.7 c 0.7,-1 0.9,-1.7 0.9,-2 0,-0.6 -0.3,-1.1 -1.3,-1.1 -1,0 -2,0.5 -2.7,1.3 -0.5,0.5 -0.7,1 -0.7,1.4" />
  <path
     style="fill:#ffffff"
     id="path16"
     d="m 59.440852,41.1 a 9,9 0 0 1 -1.7,-3 c -1.1,2.9 -5.4,6.9 -13.8,8 l -1.8,1.4 1.2,-0.2 c 0.7,0 1.2,0.3 1.2,1 0,0.8 0.2,1.6 0.4,2.3 8.9,-1.3 12.9,-5 14.3,-7 0.7,-1.1 0.8,-1.9 0.2,-2.6" />
  <path
     style="fill:#ffffff"
     id="path18"
     d="m 44.240852,49.4 c -1.4,2.4 -7.4,5.7 -14,5.7 -6.7,0 -12.7,-3.3 -14.1,-5.7 -0.3,1.6 -0.7,2.9 -1.2,4 -0.2,0.4 -0.3,0.8 0.8,1.8 2.5,2.1 7.5,4.3 14.4,4.3 7,0 12,-2.2 14.5,-4.3 1,-1 1,-1.4 0.8,-1.8 -0.5,-1.1 -1,-2.4 -1.2,-4" />
  <path
     style="fill:#0094d8"
     id="path20"
     d="m 30.240852,53.1 c -12,-5 -22.4,-13.7 -22.4,-31.1 V 3.8 a 105,105 0 0 1 22.4,-3 c 7.7,0 17.7,1.8 22.3,3 V 22 c 0,17.4 -10.3,26 -22.3,31" />
  <path
     style="fill:#32276b"
     id="path22"
     d="m 16.840852,54.8 c -0.7,-0.5 -1,-1.5 -0.8,-2.2 0.2,-0.7 0.7,-1.1 1.3,-0.7 l 0.5,0.8 0.1,-0.2 h 0.1 l -0.3,1.2 -0.1,-0.1 c 0,-0.7 0,-1.1 -0.3,-1.4 -0.4,-0.3 -0.7,0 -0.8,0.8 -0.1,0.7 0,1.3 0.3,1.6 0.4,0.3 0.6,0.2 0.8,-0.3 h 0.2 c -0.2,0.7 -0.7,0.8 -1,0.5 m 2.3,1.4 c -0.8,-0.3 -1,-1.3 -1,-1.9 0.2,-0.6 0.8,-1.2 1.5,-0.9 1,0.4 1,1.4 1,2 -0.2,0.7 -0.7,1.2 -1.5,0.8 m 0.5,-2.5 c -0.3,-0.2 -0.7,0 -0.8,0.9 -0.2,1 0,1.3 0.4,1.4 0.4,0.2 0.7,-0.2 0.8,-0.8 0.2,-0.9 0,-1.4 -0.4,-1.5 z m 3.9,2.9 c -0.1,0 -0.2,0 -0.3,0.2 l -0.2,1 -0.2,-0.1 v -0.4 c -0.2,0.2 -0.5,0.3 -0.9,0.2 -0.7,-0.3 -1,-1 -0.9,-1.8 0.2,-0.8 0.8,-1.3 1.6,-1 0.3,0 0.5,0.3 0.6,0.5 l 0.2,-0.3 h 0.1 l -0.3,1.2 h -0.1 c 0,-0.6 0,-1 -0.5,-1.2 -0.3,0 -0.8,0 -1,1 -0.2,0.8 0,1.2 0.5,1.4 0.3,0 0.4,0 0.5,-0.2 v -0.4 -0.3 l -0.3,-0.1 v -0.2 l 1.3,0.4 v 0.1 h -0.1 m 3.3,-0.7 c -0.2,0 -0.3,0 -0.3,0.2 l -0.3,2.4 h -0.4 l -1.2,-2.4 -0.3,1.6 c 0,0.2 0,0.3 0.2,0.3 l 0.3,0.1 v 0.2 l -1.2,-0.3 v -0.2 l 0.3,0.1 0.2,-0.2 0.3,-2 c 0,-0.2 0,-0.2 -0.2,-0.3 h -0.2 v -0.2 l 0.9,0.2 1,2.1 0.2,-1.5 -0.1,-0.2 h -0.2 v -0.3 l 1.2,0.2 v 0.2 h -0.3 m 1.6,2.9 c -0.9,-0.1 -1.2,-1 -1.2,-1.6 0,-0.7 0.6,-1.5 1.4,-1.4 1,0 1.3,1 1.3,1.6 -0.1,0.7 -0.6,1.4 -1.5,1.4 m 0.2,-2.8 c -0.3,0 -0.7,0.3 -0.8,1.3 0,1 0.3,1.2 0.6,1.2 0.5,0 0.8,-0.4 0.8,-1.1 0,-1 -0.2,-1.4 -0.6,-1.4 z m 3,2.8 c -0.5,0 -0.7,-0.1 -0.8,-0.4 l -0.2,0.4 v -1.3 c 0.2,0.6 0.4,1 1,1 0.2,0 0.4,-0.1 0.4,-0.3 0,-0.9 -1.5,-0.3 -1.5,-1.6 0,-0.2 0.2,-0.8 0.9,-0.8 0.3,0 0.5,0.1 0.7,0.3 l 0.1,-0.3 h 0.1 v 1.1 h -0.2 c 0,-0.6 -0.2,-0.9 -0.7,-0.9 -0.3,0 -0.5,0.3 -0.5,0.5 0,0.7 1.6,0.2 1.6,1.4 0,0.4 -0.4,0.9 -1,0.9 m 3,-0.3 c -0.8,0.1 -1.3,-0.5 -1.4,-1.2 0,-0.8 0.5,-1.7 1.2,-1.8 0.3,0 0.5,0 0.8,0.2 v -0.3 h 0.2 v 1.1 h -0.1 c -0.1,-0.6 -0.4,-1 -0.8,-0.9 -0.4,0.1 -0.7,0.7 -0.6,1.5 0,0.7 0.3,1.1 0.7,1 0.5,0 0.8,-0.3 0.8,-1 h 0.2 c 0,0.7 -0.3,1.2 -1,1.3 m 2.5,-3.2 -0.1,0.3 v 0.8 h 0.1 c 0.4,-0.1 0.5,-0.1 0.5,-0.8 h 0.2 V 57 c -0.2,-0.6 -0.2,-0.6 -0.7,-0.5 v 1 c 0,0.2 0.1,0.2 0.2,0.2 l 0.5,-0.2 c 0.5,-0.1 0.5,-0.3 0.6,-1 l 0.1,-0.1 0.1,1 c -0.9,0.4 -1.6,0.6 -2.5,0.8 V 58 h 0.3 l 0.1,-0.4 -0.1,-2 c 0,-0.2 -0.1,-0.2 -0.2,-0.1 h -0.3 v -0.2 l 2.4,-0.6 v 1 c -0.2,-0.7 -0.4,-0.7 -0.7,-0.6 l -0.5,0.1 m 2.1,2 v -0.1 l 0.3,-0.1 c 0,0 0.1,-0.2 0,-0.4 l -0.1,-1.9 c 0,-0.2 -0.2,-0.2 -0.3,-0.1 h -0.1 l 1.6,-0.8 c 0.4,-0.2 0.8,0 0.9,0.3 0,0.3 -0.2,0.7 -0.5,0.9 0.3,0 0.4,0.2 0.5,0.8 0,0.2 0.1,0.2 0.2,0.1 v -0.7 l 0.2,-0.1 v 0.6 c 0.1,0.2 0,0.4 -0.4,0.6 -0.3,0.1 -0.5,0 -0.6,-0.3 0,-0.6 -0.2,-0.7 -0.5,-0.6 h -0.4 l 0.2,1 0.1,0.2 0.4,-0.1 v 0.1 l -1.5,0.6 m 1,-3.1 -0.2,0.1 -0.1,0.2 0.1,0.9 0.3,-0.1 c 0.4,-0.2 0.5,-0.6 0.5,-0.8 0,-0.5 -0.4,-0.4 -0.6,-0.3 z m 3.6,-2.5 0.3,1 h -0.2 c -0.2,-0.6 -0.4,-0.5 -0.6,-0.3 l -0.4,0.3 v 1.1 l 0.2,-0.1 c 0.3,-0.2 0.3,-0.3 0.2,-1 h 0.1 l 0.4,1.4 -0.2,0.1 c -0.1,-0.6 -0.1,-0.6 -0.5,-0.3 l 0.1,1 c 0,0.2 0,0.1 0.2,0 l 0.5,-0.3 c 0.2,-0.2 0.3,-0.5 0.2,-1.2 l 0.1,-0.1 0.3,1 a 16,16 0 0 1 -2.1,1.6 v -0.3 l 0.2,-0.1 c 0.1,-0.1 0.1,-0.2 0,-0.4 l -0.3,-1.8 c 0,-0.2 0,-0.3 -0.2,-0.2 l -0.2,0.2 V 53 l 1.9,-1.5 m -40.8,-7.4 c -0.2,-0.2 -0.3,-0.6 -0.2,-0.8 0.3,-0.5 0.3,-0.8 0,-1.1 V 42 l -0.5,0.8 V 43 l 0.2,0.3 v 0.1 l -1,-1.1 v -0.2 l 0.2,0.2 c 0.1,0 0.2,0.1 0.2,0 l 0.9,-1.6 v -0.4 l -0.2,-0.2 V 40 l 1.1,1.3 c 0.3,0.4 0.4,1 0.2,1.3 0,0.2 -0.3,0.2 -0.6,0 0.2,0.4 0.1,0.7 -0.1,1.2 V 44 c 0,0.1 0,0.1 0.1,0 l 0.2,-0.5 0.2,0.2 -0.2,0.5 c -0.1,0.2 -0.3,0.2 -0.5,0 m 0.4,-3 V 41 h -0.2 l -0.4,0.8 0.2,0.3 c 0.3,0.3 0.5,0.2 0.6,0 0.2,-0.4 0,-0.7 -0.2,-0.9 z m 0,3.4 0.1,-0.1 0.2,0.1 h 0.3 l 0.9,-1.8 v -0.3 l -0.3,-0.1 0.1,-0.2 1.8,1.5 -0.5,1 v -0.2 c 0.2,-0.6 0.1,-0.9 -0.1,-1.1 l -0.4,-0.3 h -0.2 l -0.4,0.9 c 0.4,0.3 0.5,0.3 0.8,-0.2 h 0.1 l -0.7,1.4 -0.1,-0.1 c 0.2,-0.6 0.2,-0.6 -0.1,-1 l -0.5,0.9 v 0.2 l 0.4,0.4 c 0.3,0.2 0.5,0.1 0.9,-0.4 h 0.1 l -0.5,1 -1.9,-1.6 m 4.3,2.9 c -0.2,0 -0.4,-0.3 -0.3,-0.7 0.3,-0.5 0.3,-0.7 0,-1 h -0.2 l -0.4,0.8 v 0.2 l 0.3,0.2 v 0.2 l -1.4,-0.8 0.1,-0.1 0.2,0.1 0.3,-0.1 0.8,-1.8 v -0.3 l -0.3,-0.1 0.1,-0.2 1.5,0.9 c 0.4,0.2 0.6,0.6 0.4,1 -0.1,0.3 -0.4,0.4 -0.7,0.3 0.1,0.3 0.1,0.5 -0.1,1 v 0.3 h 0.2 l 0.2,-0.6 0.2,0.1 -0.2,0.6 c -0.1,0.2 -0.3,0.3 -0.7,0 m 0.3,-2.8 h -0.2 c 0,-0.1 0,0 -0.1,0 l -0.4,0.8 0.2,0.2 c 0.4,0.2 0.7,0 0.8,-0.2 0.2,-0.4 0,-0.6 -0.3,-0.8 z m 3.6,1.5 c -0.1,0 -0.2,0 -0.3,0.2 l -1.6,2 h -0.2 v -2.7 l -0.1,-0.3 h -0.2 v -0.2 l 1.4,0.5 v 0.1 h -0.3 l -0.2,0.1 v 1.8 l 1,-1.4 -0.1,-0.3 h -0.2 v -0.2 l 1,0.3 v 0.2 h -0.2 m 1.6,3.2 v -0.3 h 0.5 l 0.5,-1.7 -1.5,1.8 h -0.2 V 47 l -0.7,1.7 c 0,0.1 0,0.2 0.2,0.2 h 0.2 v 0.3 l -1.1,-0.3 v -0.2 h 0.2 c 0.1,0.1 0.2,0 0.3,-0.1 l 0.7,-2 -0.1,-0.2 h -0.3 v -0.2 l 1.1,0.2 v 2 l 1.4,-1.6 1,0.1 v 0.2 h -0.4 c 0,0 -0.2,0 -0.2,0.2 l -0.6,1.9 0.1,0.3 h 0.2 v 0.2 l -1.4,-0.3 m 34.4,0.1 c -0.8,0.2 -1.4,-0.5 -1.6,-1.2 -0.2,-0.7 0.1,-1.6 0.9,-1.7 l 0.7,0.1 v -0.2 h 0.2 l 0.3,1 h -0.2 c -0.2,-0.6 -0.5,-0.9 -1,-0.8 -0.4,0 -0.5,0.6 -0.3,1.4 0.2,0.7 0.6,1.1 1,1 0.4,0 0.6,-0.4 0.5,-1 h 0.2 c 0.2,0.7 -0.1,1.1 -0.7,1.3 m 2.2,-0.6 v -0.2 h 0.2 c 0,0 0.2,-0.1 0,-0.3 l -0.2,-0.4 -0.7,0.2 v 0.5 c 0,0.2 0.1,0.2 0.2,0.2 h 0.2 l -1,0.4 V 49 h 0.2 c 0.1,0 0.2,-0.1 0.2,-0.3 v -2.6 l 0.3,-0.1 1.5,2 c 0,0.3 0.1,0.3 0.2,0.2 h 0.3 v 0.1 l -1.4,0.5 m -0.7,-1.9 v 1 l 0.6,-0.2 z m 3.4,-2 c -0.2,0 -0.2,0.1 -0.2,0.3 v 2.7 l -0.3,0.1 -1.5,-2 c -0.1,-0.2 -0.1,-0.2 -0.2,-0.1 h -0.2 v -0.1 l 1.2,-0.6 v 0.2 h -0.1 c -0.1,0 -0.2,0.2 0,0.3 l 0.9,1.4 v -1.8 c 0,-0.2 -0.1,-0.2 -0.2,-0.1 h -0.2 v -0.1 l 0.8,-0.4 v 0.1 m 1.9,2 c -0.3,0.2 -0.5,0.2 -0.7,0 v 0.4 h -0.2 l -0.3,-1 0.1,-0.2 c 0.3,0.5 0.6,0.9 1,0.6 0.2,-0.1 0.4,-0.4 0.3,-0.6 -0.2,-0.8 -1.3,0.5 -1.7,-0.7 0,-0.3 0,-1 0.5,-1.2 0.3,-0.2 0.5,-0.2 0.7,0 v -0.6 l 0.4,1.1 h -0.1 c -0.2,-0.5 -0.5,-0.7 -1,-0.4 -0.2,0.1 -0.2,0.4 -0.2,0.6 0.2,0.7 1.4,-0.5 1.7,0.6 0.2,0.5 0,1 -0.5,1.3 m 1.9,-1.2 -0.1,-0.3 0.2,-0.1 v -0.3 l -0.2,-0.4 -0.6,0.5 v 0.5 c 0,0.2 0.1,0.2 0.3,0.1 l 0.1,-0.1 v 0.2 l -0.7,0.6 V 46 c 0.2,-0.2 0.2,-0.2 0.2,-0.5 l -0.2,-2.7 0.2,-0.2 1.4,1.8 h 0.3 l 0.1,-0.1 0.1,0.2 -1.1,1 m -0.8,-1.9 0.1,1 0.4,-0.3 z m 2.6,-0.1 c -0.2,0.4 -0.3,0.4 -0.5,0.4 v 0.4 l -0.5,-1 0.1,-0.2 c 0.3,0.5 0.6,0.8 0.9,0.3 0.1,-0.2 0.2,-0.5 0.1,-0.7 -0.3,-0.8 -1,0.9 -1.4,-0.3 -0.1,-0.2 -0.2,-0.9 0.2,-1.4 0.2,-0.2 0.4,-0.3 0.5,-0.2 v -0.4 l 0.5,1 -0.1,0.1 c -0.3,-0.5 -0.5,-0.7 -0.8,-0.3 -0.2,0.3 -0.2,0.6 -0.1,0.7 0.2,0.7 1,-0.8 1.4,0.2 0.2,0.4 0.1,1 -0.2,1.5 m -43.7,-32.2 0.3,-0.5 30.7,19.4 1,0.8 0.2,-0.2 0.4,-0.4 1,0.5 c 0.7,0.5 1.3,1.4 1.2,2 -0.6,0.4 -1.8,0.2 -2.5,-0.2 l -0.9,-0.7 0.3,-0.6 -27.3,-17.3 c -0.8,0 -1.6,0.1 -2.5,-0.4 l -2,-1.3 0.9,-0.6 -0.8,-0.5" />
  <path
     style="fill:#ffffff"
     id="path24"
     d="m 14.340852,11.2 0.9,0.6 -1,0.6 2,1.2 c 0.9,0.6 1.7,0.5 2.5,0.4 l 26.2,16.6 3,1.8 c -0.7,-0.1 -1.4,-0.5 -2,-0.9 l -0.2,0.5 0.9,0.7 c 0.7,0.4 1.9,0.6 2.5,0.2 0,-0.6 -0.5,-1.6 -1.2,-2 l -1,-0.5 -0.5,0.5 -27.4,-17.4 c -0.2,-0.7 -0.5,-1.5 -1.3,-2 l -2,-1.3 -0.2,1 -0.9,-0.5 -0.3,0.4" />
  <path
     style="fill:#32276b"
     id="path26"
     d="m 16.040852,11.7 v -0.8 h 0.1 l 0.1,1 -0.2,-0.2 m 0.8,0.5 -0.1,-1 0.1,0.1 0.2,1 h -0.2 m 1.5,0.9 -0.1,-0.8 c -0.1,-0.1 0,0 0,0 l 0.4,1 -0.3,-0.2 m -0.7,-0.5 a 7,7 0 0 0 -0.2,-1 h 0.1 c 0.2,0.3 0.3,1 0.3,1.2 l -0.2,-0.2 m -1.8,-0.6 -0.9,0.3 v 0.1 l 1,-0.3 -0.2,-0.1 m 0.8,0.4 c -0.3,0.2 -0.7,0.3 -1,0.3 l 0.1,0.1 1.2,-0.2 -0.3,-0.1 m 1.6,0.9 -0.8,0.2 c -0.2,0 -0.1,0 0,0 h 1 l -0.2,-0.1 m -0.8,-0.5 a 8,8 0 0 1 -1,0.2 c -0.1,0 0,0.1 0,0.1 l 1.3,-0.2 -0.3,-0.1 m -4.9,1 0.3,-0.5 30.7,19.5 1.1,0.7 0.2,-0.2 0.3,-0.4 1,0.5 c 0.7,0.5 1.4,1.5 1.3,2.1 -0.6,0.4 -1.8,0.2 -2.5,-0.3 l -1,-0.7 0.4,-0.6 -27.4,-17.3 c -0.8,0 -1.6,0.1 -2.4,-0.4 l -2,-1.3 0.8,-0.6 -0.8,-0.5" />
  <path
     style="fill:#ffffff"
     id="path28"
     d="m 12.540852,13.9 0.9,0.6 -0.9,0.6 2,1.3 c 0.8,0.5 1.7,0.4 2.5,0.4 l 26.2,16.5 c 0.8,0.6 2.1,1.3 3,1.8 -0.8,-0.1 -1.4,-0.5 -2,-0.8 l -0.2,0.4 0.8,0.7 c 0.7,0.4 1.9,0.6 2.5,0.2 0.1,-0.6 -0.5,-1.5 -1.2,-2 a 8,8 0 0 0 -1,-0.5 l -0.5,0.5 -27.3,-17.3 c -0.3,-0.7 -0.5,-1.5 -1.3,-2 l -2,-1.3 -0.3,1 -0.8,-0.5 -0.4,0.4" />
  <path
     style="fill:#32276b"
     id="path30"
     d="m 14.240852,14.5 v -1 h 0.2 v 1 l -0.2,-0.2 m 0.8,0.6 v -1 0.1 c 0.2,0.3 0.2,1 0.2,1.1 l -0.2,-0.2 m 1.6,1 -0.2,-0.7 c 0,-0.2 0,-0.1 0.1,0 l 0.3,0.9 -0.2,-0.2 m -0.8,-0.4 -0.1,-1 c 0,-0.1 0,0 0,0 l 0.4,1.1 -0.3,-0.1 m -1.8,-0.7 a 9,9 0 0 1 -0.8,0.3 c -0.1,0 0,0.1 0,0.1 l 1,-0.3 -0.2,-0.1 m 0.8,0.5 -1,0.3 c -0.1,0 0,0 0,0 l 1.2,-0.2 -0.2,-0.1 m 1.6,1 -0.9,0.1 c -0.2,0 0,0 0,0.1 h 1 l -0.1,-0.2 m -0.8,-0.5 -1,0.2 c -0.2,0 0,0.1 0,0.1 l 1.2,-0.2 -0.2,-0.1 m -4.9,1 0.3,-0.4 30.6,19.4 1.1,0.7 0.2,-0.2 0.4,-0.3 1,0.5 c 0.7,0.4 1.3,1.4 1.2,2 -0.6,0.4 -1.8,0.2 -2.5,-0.3 l -0.9,-0.6 0.3,-0.6 -27.3,-17.5 c -0.8,0 -1.7,0.2 -2.5,-0.4 a 83,83 0 0 1 -2,-1.3 l 0.9,-0.5 -0.8,-0.6" />
  <path
     style="fill:#ffffff"
     id="path32"
     d="m 10.840852,16.7 0.8,0.5 -0.9,0.6 2,1.3 c 0.9,0.5 1.7,0.4 2.5,0.4 l 26.2,16.6 3,1.7 c -0.7,0 -1.4,-0.4 -2,-0.8 l -0.2,0.4 0.9,0.7 c 0.7,0.5 1.8,0.6 2.4,0.3 0.2,-0.7 -0.5,-1.6 -1.2,-2 l -1,-0.6 -0.4,0.5 -27.4,-17.3 c -0.3,-0.7 -0.5,-1.4 -1.3,-2 l -2,-1.2 -0.2,1 -0.9,-0.6 -0.3,0.5" />
  <path
     style="fill:#32276b"
     id="path34"
     d="m 12.540852,17.2 v -0.9 h 0.1 l 0.1,1 -0.2,-0.1 m 0.7,0.5 v -1 c 0.2,0.3 0.3,1 0.3,1.1 l -0.3,-0.1 m 1.6,1 -0.2,-0.8 c 0,-0.2 0.1,0 0.1,0 0.2,0.2 0.3,0.6 0.4,1 l -0.3,-0.2 m -0.8,-0.5 -0.1,-1 c 0,-0.1 0.1,0 0.1,0 l 0.3,1.1 -0.3,-0.1 m -1.8,-0.7 -0.8,0.4 1,-0.2 -0.2,-0.2 m 0.8,0.5 -1,0.3 h 0.1 l 1.2,-0.1 -0.3,-0.2 m 1.6,1 -0.8,0.1 c -0.3,0 -0.1,0.1 0,0.1 h 1 l -0.2,-0.2 m -0.8,-0.5 -1,0.3 c -0.1,0 0,0 0,0 l 1.3,-0.1 -0.3,-0.2 m -5,1 0.4,-0.4 30.6,19.4 1.2,0.7 0.1,-0.2 0.4,-0.3 1,0.5 c 0.7,0.4 1.3,1.4 1.2,2 -0.6,0.4 -1.8,0.2 -2.5,-0.3 l -0.9,-0.6 0.3,-0.6 -27.3,-17.3 c -0.8,0 -1.7,0 -2.5,-0.4 l -2,-1.5 0.9,-0.5 -0.8,-0.5" />
  <path
     style="fill:#ffffff"
     id="path36"
     d="m 9.040852,19.4 0.8,0.5 -0.8,0.6 2,1.3 c 0.8,0.5 1.6,0.4 2.4,0.4 l 26.2,16.6 3,1.7 c -0.7,0 -1.4,-0.4 -2,-0.8 l -0.2,0.4 0.9,0.7 c 0.7,0.5 1.8,0.6 2.4,0.3 0.2,-0.7 -0.4,-1.6 -1.2,-2 l -1,-0.6 -0.4,0.6 -27.4,-17.4 c -0.3,-0.7 -0.5,-1.4 -1.3,-2 l -2,-1.2 -0.2,1 -0.9,-0.6 -0.3,0.5" />
  <path
     style="fill:#32276b"
     id="path38"
     d="M 10.740852,19.9 V 19 h 0.1 l 0.1,1 -0.2,-0.1 m 0.7,0.5 v -1 c 0.2,0.3 0.3,1 0.3,1.1 l -0.3,-0.1 m 1.6,1 -0.1,-0.8 c -0.1,-0.2 0,0 0,0 0.2,0.2 0.3,0.7 0.4,1 l -0.3,-0.2 m -0.8,-0.5 -0.1,-1 c 0,-0.1 0.1,0 0.1,0 0.2,0.3 0.3,1 0.3,1.2 l -0.3,-0.2 m -1.8,-0.7 -0.8,0.4 1,-0.2 -0.2,-0.2 m 0.8,0.5 -1,0.3 0.1,0.1 1.2,-0.2 -0.3,-0.2 m 1.6,1 -0.8,0.2 c -0.3,0 -0.1,0 0,0 h 1 l -0.2,-0.2 m -0.8,-0.5 -1,0.3 c -0.1,0 0,0 0,0 l 1.3,-0.1 -0.3,-0.2 m 34.1,-9.8 -0.3,-0.5 -30.6,19.4 -1.2,0.8 -0.1,-0.2 -0.3,-0.4 -1,0.5 c -0.8,0.5 -1.4,1.4 -1.3,2 0.6,0.4 1.8,0.2 2.5,-0.2 l 0.9,-0.7 -0.3,-0.6 27.3,-17.3 c 0.8,0 1.7,0.1 2.5,-0.4 l 2,-1.3 -0.9,-0.6 0.8,-0.5" />
  <path
     style="fill:#ffffff"
     id="path40"
     d="m 45.740852,10.8 -0.9,0.5 a 14,14 0 0 1 -0.2,-1 l -2,1.3 c -0.8,0.5 -1,1.3 -1.3,2 l -27.5,17.3 a 7,7 0 0 0 -0.4,-0.5 l -1,0.5 c -0.7,0.4 -1.4,1.4 -1.2,2 0.6,0.4 1.7,0.2 2.4,-0.2 l 1,-0.7 -0.3,-0.4 c -0.6,0.3 -1.3,0.7 -2,0.8 a 38,38 0 0 0 3,-1.8 l 26.2,-16.6 c 0.8,0 1.6,0.2 2.5,-0.4 l 2,-1.2 -1,-0.6 1,-0.6 -0.4,-0.4" />
  <path
     style="fill:#32276b"
     id="path42"
     d="m 44.340852,11.7 v -0.8 h -0.1 l -0.1,1 0.2,-0.2 m -0.7,0.5 v -1 0.1 c -0.2,0.3 -0.3,1 -0.3,1 h 0.3 m -1.6,0.9 0.1,-0.8 c 0.1,-0.1 0,0 0,0 l -0.4,1 0.3,-0.2 m 0.8,-0.5 0.1,-1 h -0.1 a 6,6 0 0 0 -0.3,1.2 l 0.3,-0.2 m 1.8,-0.6 0.8,0.3 v 0.1 l -1,-0.3 0.2,-0.1 m -0.8,0.4 c 0.3,0.2 0.7,0.3 1,0.3 l -0.1,0.1 -1.2,-0.2 0.3,-0.1 m -1.6,0.9 0.8,0.2 c 0.3,0 0.1,0 0,0 h -1 l 0.2,-0.1 m 0.8,-0.5 1,0.2 c 0.1,0 0,0.1 0,0.1 l -1.3,-0.2 0.3,-0.1 m 4.9,1 -0.3,-0.5 -30.8,19.5 -1,0.7 -0.2,-0.2 -0.4,-0.4 -1,0.5 c -0.7,0.5 -1.4,1.5 -1.2,2.1 0.6,0.4 1.8,0.2 2.5,-0.3 l 0.8,-0.7 -0.3,-0.6 27.4,-17.3 c 0.8,0 1.6,0.1 2.4,-0.4 a 75,75 0 0 0 2,-1.3 l -0.8,-0.6 0.8,-0.5" />
  <path
     style="fill:#ffffff"
     id="path44"
     d="m 47.440852,13.5 -0.8,0.5 a 15,15 0 0 1 -0.2,-1 l -2,1.3 c -0.9,0.5 -1,1.3 -1.4,2 l -27.2,17.2 a 7,7 0 0 0 -0.5,-0.5 l -1,0.5 c -0.7,0.5 -1.3,1.4 -1.2,2 0.6,0.4 1.8,0.2 2.5,-0.2 l 0.9,-0.7 -0.3,-0.4 c -0.5,0.3 -1.2,0.7 -2,0.8 0.9,-0.5 2.2,-1.2 3,-1.8 l 26.3,-16.5 c 0.8,0 1.6,0 2.4,-0.4 l 2,-1.3 -0.9,-0.6 0.9,-0.5 -0.4,-0.5" />
  <path
     style="fill:#32276b"
     id="path46"
     d="m 46.140852,14.5 v -1 h -0.3 v 1 l 0.2,-0.2 m -0.7,0.6 0.1,-1 -0.1,0.1 -0.2,1.1 0.2,-0.2 m -1.5,1 0.1,-0.7 c 0,-0.2 0,-0.1 0,0 -0.2,0.2 -0.3,0.6 -0.4,0.9 l 0.2,-0.2 m 0.8,-0.4 0.2,-1 c 0,-0.1 -0.2,0 -0.2,0 l -0.2,1.1 0.2,-0.1 m 1.8,-0.7 0.9,0.3 -0.1,0.1 -1,-0.3 0.2,-0.1 m -0.8,0.5 1,0.3 c 0.1,0 0,0 0,0 l -1.2,-0.2 0.2,-0.1 m -1.5,1 0.8,0.1 c 0.2,0 0,0 0,0.1 h -1 l 0.2,-0.2 m 0.8,-0.5 1,0.2 -0.1,0.1 -1.2,-0.2 0.2,-0.1 m 5,1 -0.4,-0.4 -30.5,19.4 -1.1,0.7 -0.2,-0.2 -0.3,-0.3 -1,0.5 c -0.8,0.4 -1.4,1.4 -1.3,2 0.6,0.4 1.8,0.2 2.5,-0.3 l 1,-0.6 -0.4,-0.6 27.2,-17.5 c 0.8,0 1.7,0.2 2.5,-0.4 l 2,-1.3 -0.9,-0.5 0.9,-0.6" />
  <path
     style="fill:#ffffff"
     id="path48"
     d="m 49.240852,16.2 -0.9,0.6 -0.2,-1 -2,1.2 c -0.8,0.6 -1,1.3 -1.3,2 l -27.4,17.3 -0.4,-0.5 -1,0.5 c -0.7,0.5 -1.3,1.4 -1.2,2 0.6,0.4 1.7,0.3 2.4,-0.2 l 1,-0.7 -0.3,-0.4 c -0.6,0.4 -1.3,0.7 -2,0.8 l 3,-1.7 26.2,-16.6 c 0.8,0 1.6,0.1 2.5,-0.4 l 2,-1.3 c -0.2,0 -0.6,-0.3 -1,-0.6 l 1,-0.5 -0.4,-0.5" />
  <path
     style="fill:#32276b"
     id="path50"
     d="m 47.840852,17.2 v -0.9 0 1 l 0.2,-0.1 m -0.9,0.5 v -1 c -0.2,0.3 -0.3,1 -0.3,1.1 l 0.3,-0.1 m -1.6,1 0.2,-0.8 c 0,-0.2 0,0 -0.1,0 -0.2,0.2 -0.3,0.6 -0.3,1 l 0.2,-0.2 m 0.8,-0.5 0.1,-1 c 0,-0.1 0,0 -0.1,0 a 6,6 0 0 0 -0.3,1.1 l 0.3,-0.1 m 1.8,-0.7 0.8,0.4 -1,-0.2 0.2,-0.2 m -0.8,0.5 1,0.3 h -0.1 l -1.1,-0.1 0.2,-0.2 m -1.5,1 0.8,0.1 c 0.2,0 0,0.1 0,0.1 h -1.1 l 0.2,-0.2 m 0.8,-0.5 1,0.3 c 0.1,0 0,0 0,0 l -1.3,-0.1 0.3,-0.2 m 5,1 -0.4,-0.4 -30.6,19.4 -1.1,0.7 -0.2,-0.2 -0.3,-0.3 -1,0.5 c -0.8,0.4 -1.4,1.4 -1.3,2 0.6,0.4 1.8,0.2 2.5,-0.3 l 0.9,-0.6 -0.3,-0.6 27.3,-17.3 c 0.8,0 1.7,0 2.5,-0.4 a 79,79 0 0 0 2,-1.4 l -0.9,-0.5 0.9,-0.5" />
  <path
     style="fill:#ffffff"
     id="path52"
     d="m 51.040852,18.9 -0.9,0.6 -0.2,-1 -2,1.2 c -0.8,0.6 -1,1.3 -1.3,2 l -27.4,17.4 c 0,-0.2 -0.3,-0.5 -0.4,-0.6 l -1,0.6 c -0.7,0.4 -1.3,1.3 -1.2,2 0.6,0.3 1.7,0.2 2.4,-0.3 l 1,-0.7 -0.3,-0.4 a 37,37 0 0 0 1,-1 l 26.2,-16.5 c 0.8,0 1.6,0.1 2.5,-0.4 l 2,-1.3 c -0.2,0 -0.6,-0.3 -1,-0.6 l 1,-0.5 -0.4,-0.5" />
  <path
     style="fill:#32276b"
     id="path54"
     d="m 49.740852,19.9 -0.1,-0.9 h -0.1 v 1 l 0.1,-0.1 m -0.8,0.5 0.2,-1 h -0.2 a 5,5 0 0 0 -0.2,1.1 l 0.3,-0.1 m -1.6,1 0.2,-0.8 c 0,-0.2 -0.1,0 -0.1,0 -0.2,0.2 -0.3,0.7 -0.3,1 l 0.2,-0.2 m 0.8,-0.5 0.1,-1 c 0,-0.1 -0.1,0 -0.1,0 a 6,6 0 0 0 -0.3,1.2 l 0.3,-0.2 m 1.7,-0.7 1,0.4 h -0.2 l -1,-0.2 0.3,-0.2 m -0.8,0.5 1,0.3 -0.1,0.1 -1.1,-0.2 0.2,-0.2 m -1.6,1 0.9,0.2 c 0.2,0 0,0 0,0 h -1.1 l 0.2,-0.2 m 0.8,-0.5 1,0.3 c 0.1,0 0,0 0,0 l -1.3,-0.1 0.3,-0.2" />
  <path
     style="fill:#008c3e"
     id="path56"
     d="m 31.040852,37.3 v -1 h -0.2 l -0.2,0.1 V 36 c 0,-0.2 0,-0.2 -0.1,-0.1 h -0.1 l -0.3,-0.7 c 0,-0.1 0,0 -0.1,0 l -0.2,0.6 c 0,0.1 0,0.1 -0.2,0 h -0.1 l 0.1,0.8 -0.2,-0.3 c -0.1,-0.1 -0.2,0 -0.2,0 v 0.9 l 1,0.6 0.8,-0.5 m -7.2,4.7 -0.7,-0.2 c -0.1,0 -0.1,-0.1 0,-0.2 l 0.3,-0.1 -0.6,-0.2 c -0.2,0 -0.2,0 0,-0.1 l -0.1,-0.1 -0.4,-0.4 a 37.6,37.6 0 0 0 0.7,-0.2 v -0.2 l 0.6,0.2 -0.1,-0.3 c 0,0 0,-0.1 0.1,0 l 1,0.2 0.2,1 -1,0.6 m 1.7,5.9 -0.4,0.7 v 0.1 h 0.3 l -0.5,0.6 h 0.2 v 0.1 l -0.1,0.6 c 0,0.1 0,0.2 0.1,0.1 l 0.6,-0.4 0.1,0.2 c 0,0 0,0.2 0.2,0 l 0.4,-1 v 0.5 h 0.2 l 0.5,-0.7 -0.2,-1 -1.4,0.2 m 7.7,1.1 0.5,0.7 h 0.1 l 0.1,-0.3 0.3,0.5 h 0.2 c 0,-0.2 0,-0.2 0.1,-0.1 l 0.5,0.3 h 0.1 v -0.7 c -0.1,0 -0.1,0 0,0 0.2,0 0.2,-0.1 0,-0.2 l -0.4,-0.5 h 0.4 c 0.1,0.1 0.2,0 0,0 l -0.5,-0.7 -1.3,-0.2 -0.1,1.2 m 2.9,-6.9 1,-0.2 v -0.2 c -0.1,0 -0.2,0 -0.3,-0.2 l 0.5,-0.1 v -0.2 c -0.1,0 -0.1,0 0,0 l 0.5,-0.5 c 0.1,0 0,0 0,0 h -0.6 c -0.1,0 -0.2,-0.1 -0.1,-0.2 0,-0.2 0,-0.2 -0.1,-0.1 l -0.6,0.3 0.1,-0.4 c 0.1,-0.1 0,-0.1 0,0 -0.1,0 -0.6,0 -0.9,0.2 l -0.6,1.1 1,0.5" />
  <path
     style="fill:#32276b"
     id="path58"
     d="m 37.840852,40.6 h -0.7 c 0,-0.3 0,-0.3 -0.1,-0.2 l -0.6,0.3 0.1,-0.4 c 0,-0.1 0,-0.1 0,0 l -0.8,0.1 c -0.1,-1.3 -1.8,-3.2 -4.4,-3.2 h -0.3 v -0.9 h -0.2 l -0.2,0.1 V 36 c 0,-0.2 0,-0.2 -0.1,-0.1 h -0.1 l -0.3,-0.7 c 0,-0.1 0,0 -0.1,0 l -0.2,0.6 c 0,0.1 0,0.1 -0.2,0 h -0.1 l 0.1,0.8 -0.2,-0.3 c -0.1,-0.1 -0.1,0 -0.2,0 V 37 c -1.8,0 -4.5,1.4 -4.7,3.4 l -0.9,-0.3 -0.1,0.1 v 0.3 l -0.5,-0.2 v 0.2 a 29.7,29.7 0 0 1 -0.7,0.2 l 0.4,0.4 v 0.2 l 0.7,0.2 -0.3,0.1 c -0.1,0 -0.1,0.1 0,0.2 l 0.6,0.2 c -0.3,0.4 -0.4,1 -0.4,1.8 0,2.3 0.9,3.9 2.2,4.2 l -0.4,0.6 v 0.1 h 0.3 l -0.5,0.6 h 0.2 v 0.1 l -0.1,0.6 c 0,0.1 0,0.2 0.1,0.1 l 0.6,-0.4 0.1,0.2 c 0,0 0,0.2 0.2,0 l 0.4,-1 v 0.5 h 0.2 l 0.3,-0.5 c 0.5,0.9 2,1.3 3.4,1.3 2,0 2.7,-0.4 3,-1 l 0.4,0.5 h 0.1 l 0.1,-0.3 0.3,0.5 h 0.2 c 0,-0.2 0,-0.2 0.1,-0.1 l 0.5,0.3 h 0.1 v -0.7 c -0.1,0 -0.1,0 0,0 0.2,0 0.2,-0.1 0,-0.2 l -0.4,-0.5 0.4,0.1 c 0.1,0 0.2,0 0,-0.1 l -0.4,-0.6 c 1.1,-0.4 2.3,-2.1 2.3,-4.4 a 2,2 0 0 0 -0.7,-1.7 l 0.7,-0.1 c 0.1,0 0.1,0 0,-0.2 l -0.2,-0.2 0.5,-0.1 v -0.2 c -0.1,0 -0.1,0 0,0 l 0.5,-0.5 c 0.1,0 0,0 0,0 m -14.4,0.3 1,0.4 a 1,1 0 0 0 -0.6,0.4 l -0.5,-0.1 0.3,-0.2 a 54.4,54.4 0 0 0 -0.7,-0.3 h 0.2 l -0.6,-0.5 h 0.8 l -0.1,-0.2 0.5,0.2 c 0,0 0.1,0 0,-0.1 v -0.3 l 0.8,0.3 c 0,0.3 0,0.4 0.2,0.6 l -1.2,-0.3 c -0.2,0 -0.3,0 0,0.1 z m 3.2,8.2 v -0.4 h -0.3 l -0.4,0.9 v -0.3 l -0.7,0.5 0.2,-0.8 h -0.2 l 0.5,-0.5 h -0.1 -0.3 l 0.4,-0.6 h 0.3 l 0.6,-0.1 -0.8,1 c 0,0.2 0,0.3 0.1,0.1 l 1,-1 c -0.2,0.2 -0.1,0.5 0,0.8 z m 3.7,-11.5 -0.1,-1.4 a 48.6,48.6 0 0 1 -0.1,1.2 l -0.7,-0.5 v -0.5 l 0.2,0.2 c 0.1,0.1 0.2,0 0.2,-0.1 l -0.2,-0.6 0.2,0.1 0.3,-0.7 0.2,0.8 0.2,-0.2 v 0.6 l 0.3,-0.1 v 0.8 c -0.3,0 -0.4,0.2 -0.5,0.4 z m 4.5,10.8 h -0.3 c -0.1,0 -0.2,0 0,0.2 l 0.4,0.4 h -0.1 l 0.1,0.7 -0.6,-0.4 v 0.2 l -0.3,-0.5 h -0.2 l -0.2,0.3 -0.3,-0.5 a 2,2 0 0 0 0.1,-0.8 l 0.9,1 c 0,0 0.2,0 0,-0.1 l -0.7,-1 h 0.8 z m 2,-7.4 0.2,0.1 -0.5,0.1 c -0.1,0 0,0.1 0,0.2 l 0.2,0.2 -0.6,0.1 -0.7,-0.3 1.1,-0.5 c 0.2,0 0.2,-0.2 0,0 l -1.2,0.3 c 0.2,-0.2 0.3,-0.5 0.3,-0.8 l 0.6,-0.2 v 0.3 c -0.2,0.1 -0.1,0.2 0,0 l 0.6,-0.2 v 0.3 h 0.7 z" />
  <path
     style="fill:#ffffff"
     id="path60"
     d="m 32.040852,46.1 c 0.1,0.3 1.2,1.4 1.2,2.1 0,1.3 -1,1.6 -2.9,1.6 -2.3,0 -3.3,-1 -3.3,-1.6 0,-0.6 0.7,-1.5 1.3,-2.1 0.2,-0.3 -0.2,-0.6 -0.3,-0.2 -0.2,0.3 -1,1.8 -2,1.8 -1.6,0 -2.3,-2.4 -2.3,-4.4 0,-1 0.3,-1.7 1,-1.7 0.4,0 1.3,0.5 2.5,0.9 0.4,0.1 0.6,-0.3 0,-0.4 -1,0 -2.4,-0.7 -2.4,-1.4 0,-1.8 3.2,-3.4 4.3,-3.4 1,0 1,1.5 1,3.3 0,0.4 0.3,0.3 0.3,0 l -0.1,-2.1 c 0,-0.5 0.2,-1 1,-1 2,0 4.1,2 4.1,3.1 0,0.7 -1.1,1.4 -2.5,1.6 -0.4,0 -0.2,0.5 0.1,0.3 a 6,6 0 0 1 2.2,-0.6 c 0.7,0 1.4,0.5 1.4,1.6 0,2.6 -1.4,4.4 -2.3,4.4 -0.9,0 -1.5,-1 -2,-2 -0.1,-0.2 -0.4,-0.1 -0.3,0.2" />
  <path
     style="fill:#32276b"
     id="path62"
     d="m 30.840852,40.5 -0.1,-1.5 c 0,-0.8 0.2,-1.1 0.7,-1.1 0.6,0 1.2,0.9 1.7,0.9 0.1,0 0.3,0 0.3,-0.2 l 0.2,0.1 v 0.4 c 0,0.8 1.4,0.7 1.4,1.4 0,1 -1.6,1.3 -2.1,1.3 -0.3,0 -0.2,0 0,0 0.8,-0.1 1.9,-0.7 1.9,-1.3 0,-0.6 -1.7,-0.5 -1.4,-1.7 -0.8,0.6 -1.3,-0.7 -2,-0.7 -0.3,0 -0.5,0.2 -0.5,0.9 a 42,42 0 0 0 -0.1,1.5 m -3.3,1.3 c -0.3,-0.2 -1.1,-0.3 -1.4,-0.4 -0.8,-0.3 -0.9,-0.7 -0.8,-1 0.2,-0.5 1.3,-0.8 1.4,-1.4 v -0.3 -0.2 l 0.4,0.2 c 0.7,0.2 1.2,-1.1 1.9,-1 1,0.4 0.5,2.2 0.5,2.7 0,0.2 -0.1,0.2 -0.2,0 0,-0.4 0.5,-2.1 -0.4,-2.4 -0.7,-0.2 -1,1.5 -2,0.7 0.2,1 -1.2,1.1 -1.4,1.7 0,0.3 0.2,0.7 0.7,0.9 l 1.4,0.4 c 0,0 0.1,0.2 0,0 m 0.1,3.6 -0.7,1.3 c -0.5,0.6 -1,0.7 -1.5,0.4 -0.4,-0.3 -0.4,-1.5 -0.8,-1.8 a 0.5,0.5 0 0 0 -0.3,0 c -0.1,0 -0.2,-0.1 -0.1,-0.2 l 0.3,-0.2 c 0.3,-0.7 -0.8,-1.5 -0.3,-2.1 0.5,-0.7 2,0 2.6,0.4 0.2,0.1 0.2,0.2 0,0.1 -0.9,-0.5 -2,-1 -2.4,-0.4 -0.4,0.6 1,1.5 0,2.2 1,0 0.7,1.4 1.2,1.8 0.2,0.2 0.8,0.1 1.1,-0.3 l 0.8,-1.3 c 0.1,-0.1 0.2,0 0,0.1 m 3.9,1.1 0.8,1 c 0.5,0.5 0.5,1.1 0.2,1.4 -0.4,0.4 -1.5,0 -2,0.3 l -0.1,0.3 c 0,0.2 -0.2,0.1 -0.2,0 l -0.2,-0.3 c -0.4,-0.6 -1.6,0.1 -2,-0.4 -0.6,-0.7 0.2,-1.9 0.7,-2.2 0.1,-0.2 0.2,-0.1 0.1,0 -0.8,0.7 -1,1.6 -0.8,2 0.4,0.5 2,-0.4 2.3,0.8 0.3,-1 1.5,-0.3 2,-0.7 0.3,-0.2 0.3,-0.6 0,-1 l -1,-1.1 c 0,-0.2 0,-0.3 0.2,-0.1 m 1.8,-3.5 c 0.4,0 1,-0.1 1.3,-0.3 0.7,-0.3 1.2,0 1.3,0.4 0.1,0.5 -0.4,1.5 -0.2,2 l 0.2,0.2 c 0.1,0 0,0.2 0,0.2 h -0.4 c -0.7,0.3 -0.3,1.6 -1,1.8 -1,0.3 -1.8,-1.1 -1.9,-1.6 0,-0.2 0,-0.2 0.1,0 0.4,0.9 1.2,1.6 1.7,1.4 0.6,-0.2 0.1,-1.7 1.3,-1.7 -0.7,-0.6 0.2,-1.6 0,-2.2 -0.1,-0.4 -0.5,-0.5 -1,-0.3 l -1.4,0.3 c -0.2,0 -0.3,-0.1 0,-0.2" />
  <path
     style="fill:#32276b"
     id="path64"
     d="m 34.840852,44.9 -2.3,-0.7 a 6,6 0 0 0 2.1,-0.4 c 0.1,0 0.1,-0.1 0,-0.1 -0.3,0 -1.4,0.4 -2.1,0.4 l 0.1,-0.7 a 2.4,2.4 0 0 0 -0.9,-1.7 c 0.6,-0.5 1.6,-0.8 1.8,-0.9 0.2,0 0.3,-0.2 0,-0.1 a 3.9,3.9 0 0 0 -1.9,0.9 l 1.4,-1.9 c 0.1,-0.2 0,-0.3 -0.1,-0.2 -0.2,0.1 -1.1,1.5 -1.4,2 0.2,-0.4 0.3,-1.7 0.3,-2 0,-0.2 -0.2,-0.2 -0.2,0 0,0.1 0,1.2 -0.2,2 -0.4,-0.2 -0.9,-0.3 -1.4,-0.3 a 2,2 0 0 0 -1,0.3 c -0.4,-0.7 -0.4,-2 -0.4,-2.2 0,-0.2 0,-0.3 -0.1,-0.1 -0.1,0.2 -0.1,1.6 0.3,2.2 l -1.4,-2 c -0.1,-0.1 -0.3,0 -0.2,0.1 a 24,24 0 0 0 1.5,2 6,6 0 0 0 -2,-1 c 0,0 -0.2,0.1 0,0.2 0.2,0 1.5,0.6 2,1 a 4,4 0 0 0 -0.4,0.4 c -0.4,0.4 -0.5,1 -0.5,1.6 v 0.4 c -0.8,0 -2,-0.5 -2.2,-0.7 -0.1,0 -0.2,0 -0.1,0.1 0.2,0.2 1.4,0.9 2.2,0.7 l -2.4,0.5 c -0.3,0 -0.2,0.1 0,0.2 l 2.4,-0.5 a 6,6 0 0 0 -1.8,1.3 c 0,0.1 0,0.2 0.2,0.1 0.2,-0.2 1.2,-1.1 1.8,-1.4 0.1,0.5 0.5,0.9 1,1.2 l 1.1,0.3 a 5,5 0 0 1 -1,2 c -0.2,0.1 0,0.3 0,0.1 0.3,-0.1 1.1,-1.2 1,-2 0,0.4 0.2,2.2 0.1,2.4 0,0.3 0.2,0.3 0.2,0.1 v -2.4 a 6,6 0 0 0 1,1.9 c 0,0 0.2,0 0.1,-0.1 -0.3,-0.4 -0.9,-1.3 -1,-2 0.5,0 1.4,-0.4 1.7,-1 l 0.3,-0.5 a 5,5 0 0 1 1.4,1.6 c 0.1,0.2 0.3,0.2 0.2,0 0,-0.3 -0.8,-1.4 -1.6,-1.6 0.4,0 2.1,0.6 2.3,0.7 0.3,0.1 0.3,-0.1 0.2,-0.2" />
  <path
     style="fill:#ffea00"
     id="path66"
     d="m 30.140852,43.1 c 0.2,0 0.4,0.2 0.4,0.3 0,0.2 -0.2,0.4 -0.3,0.4 -0.2,0 -0.4,-0.2 -0.4,-0.3 0,-0.2 0.2,-0.4 0.3,-0.4 m -0.9,-0.2 c 0.2,0 0.3,0.2 0.3,0.3 0,0.2 -0.2,0.4 -0.3,0.4 -0.2,0 -0.3,-0.2 -0.3,-0.3 0,-0.2 0.2,-0.4 0.3,-0.4 m 0.2,0.9 c 0.2,0 0.3,0.2 0.3,0.3 l -0.2,0.4 c -0.2,0 -0.4,-0.1 -0.4,-0.3 0,-0.2 0.2,-0.4 0.3,-0.4 m 1,0.4 c 0.2,0 0.3,0.2 0.3,0.3 0,0.2 0,0.3 -0.2,0.3 -0.2,0 -0.4,-0.1 -0.4,-0.3 0,-0.2 0.2,-0.3 0.3,-0.3 m 0.7,-0.7 c 0.2,0 0.3,0.2 0.3,0.4 0,0.2 -0.1,0.3 -0.3,0.3 -0.1,0 -0.3,-0.1 -0.3,-0.3 0,-0.2 0.1,-0.3 0.3,-0.3 m -0.3,-1.1 c 0.3,0 0.4,0.2 0.4,0.3 0,0.2 -0.1,0.4 -0.3,0.4 l -0.3,-0.3 c 0,-0.2 0.1,-0.4 0.3,-0.4 m 0.9,0 c 0.3,0 0.4,0.2 0.4,0.3 0,0.2 -0.1,0.3 -0.3,0.3 -0.2,0 -0.3,-0.1 -0.3,-0.3 0,-0.2 0.1,-0.3 0.3,-0.3 m -0.8,-0.9 c 0.2,0 0.3,0.2 0.3,0.3 0,0.2 0,0.3 -0.2,0.3 -0.2,0 -0.3,-0.1 -0.3,-0.3 0,-0.1 0,-0.3 0.2,-0.3 m 0.8,2.1 c 0.3,0 0.4,0.1 0.4,0.3 l -0.3,0.3 c -0.2,0 -0.3,-0.2 -0.3,-0.3 0,-0.2 0.1,-0.3 0.3,-0.3 m -0.7,0.9 c 0.2,0 0.4,0.2 0.4,0.3 0,0.2 -0.2,0.4 -0.4,0.4 -0.1,0 -0.3,0 -0.3,-0.2 0,-0.2 0.1,-0.5 0.3,-0.5 m -1.4,0.4 c 0.2,0 0.5,0.2 0.5,0.3 0,0.2 -0.2,0.3 -0.4,0.3 -0.1,0 -0.3,-0.1 -0.3,-0.3 0,-0.2 0,-0.3 0.2,-0.3 m -1.1,-0.3 c 0.3,0 0.5,0.1 0.5,0.2 0,0.2 -0.2,0.4 -0.4,0.4 l -0.3,-0.3 c 0,-0.2 0.1,-0.3 0.3,-0.3 m -0.6,-1 c 0.2,0 0.3,0.1 0.3,0.3 0,0.1 -0.1,0.3 -0.3,0.3 l -0.3,-0.3 c 0,-0.2 0.2,-0.3 0.3,-0.3 m 0.1,-1.2 c 0.2,0 0.3,0.1 0.3,0.2 0,0.2 -0.2,0.4 -0.3,0.4 -0.2,0 -0.3,-0.2 -0.3,-0.3 0,-0.2 0.2,-0.3 0.3,-0.3 m 1.7,-1.1 c 0.2,0 0.3,0.1 0.3,0.3 0,0.1 0,0.3 -0.2,0.3 -0.2,0 -0.3,-0.2 -0.3,-0.3 0,-0.2 0.1,-0.3 0.2,-0.3 m -1.1,0.3 c 0.2,0 0.3,0.1 0.3,0.3 0,0.1 0,0.3 -0.2,0.3 -0.2,0 -0.3,-0.2 -0.3,-0.3 0,-0.2 0.1,-0.3 0.2,-0.3 m 0.8,0.5 c 0.3,0 0.4,0.2 0.4,0.3 0,0.2 -0.1,0.3 -0.3,0.3 -0.1,0 -0.3,-0.1 -0.3,-0.3 l 0.3,-0.3" />
  <path
     style="fill:#32276b"
     id="path68"
     d="m 30.140852,1.5 c 1.2,0 1.7,0.8 1.2,2 0.3,0 0.4,-0.2 0.5,-0.7 0.9,0.3 1,1.3 0.3,1.9 0.4,-0.2 0.8,-0.2 1,0 -0.3,0.2 -0.4,0.4 -0.4,0.6 0.3,-0.2 0.5,-0.4 1,-0.4 0.6,0 1.1,0.3 1.1,1.2 0,1.3 -0.8,1.5 -1.8,1.2 l 0.3,0.4 c -0.8,0.3 -1.9,0 -2.6,-0.4 0.4,1.3 2.4,1.9 4,0.6 0.6,1.6 3,1.8 4.1,0.5 -1,0.5 -2.1,0.2 -2.7,-0.3 0.2,0 0.6,-0.2 0.7,-0.4 -0.8,0 -1.2,-0.3 -1.2,-1 0,-0.6 0.7,-1.3 1.5,-1.3 0.5,0 0.8,0.4 1,0.8 v -1 c 1,0 1.2,0.6 1.4,1 0.3,-1.3 1.2,-2.2 3,-1.9 l -0.7,1 c 0.2,-0.1 0.6,-0.4 1.2,-0.4 0.8,0 1.3,0.6 1.3,1.2 0,0.6 -0.4,1 -0.7,1.2 -0.4,-0.7 -1,-0.8 -1.3,-0.8 -1,0 -1.5,0.5 -1.7,0.8 0.4,0.7 0,1.2 -0.7,1.1 l -1.2,1.9 c 0.2,0.5 0.2,1 -0.2,1.6 l -0.1,0.8 0.2,0.4 c 0,1 -3.8,1.4 -8.5,1.4 -2.5,0 -8.6,-0.3 -8.6,-1.4 0,-0.2 0.1,-0.3 0.3,-0.4 l -0.1,-0.8 c -0.3,-0.5 -0.4,-1 -0.1,-1.5 -0.3,-0.3 -1.1,-1.8 -1.2,-2 -1,0 -1,-0.6 -0.8,-1 -0.3,-0.5 -0.9,-1 -1.6,-1 -0.6,0 -1,0.2 -1.3,0.7 -0.3,-0.2 -0.6,-0.4 -0.6,-1 0,-0.7 0.6,-1.1 1.1,-1.1 0.6,0 1,0.2 1.3,0.5 l -0.7,-1.2 c 1.8,-0.3 2.7,0.7 3,2 0.1,-0.4 0.4,-1.1 1.4,-1 v 0.9 c 0.2,-0.4 0.5,-0.8 1,-0.8 0.7,0 1.5,0.8 1.5,1.4 0,0.7 -0.5,1 -1.4,0.9 0.1,0.2 0.4,0.3 0.7,0.4 -0.5,0.5 -1.6,0.7 -2.7,0.3 1.3,1.5 3.7,1 4.2,-0.5 1.4,1.3 3.7,0.8 4,-0.6 -0.7,0.5 -1.7,0.6 -2.6,0.4 0.2,0 0.3,-0.3 0.4,-0.4 -1.2,0.3 -1.8,0 -1.8,-1.2 0,-0.6 0.4,-1.2 1,-1.2 0.4,0 0.7,0.2 1,0.4 0,-0.2 0,-0.4 -0.4,-0.6 0.3,-0.2 0.6,-0.2 1,0 -0.6,-0.6 -0.5,-1.6 0.4,-2 0.1,0.5 0.2,0.8 0.4,0.8 -0.5,-1.3 0,-2 1.2,-2" />
  <path
     style="fill:#ffea00"
     id="path70"
     d="m 18.540852,6 c -0.3,-0.7 -0.8,-0.8 -1.2,-0.8 a 1,1 0 0 0 -0.9,1 c 0,0.2 0,0.4 0.2,0.5 0.2,-0.3 0.7,-0.9 2,-0.7 m 25.1,0.7 0.2,-0.6 c 0,-0.5 -0.4,-0.9 -1,-0.9 -0.6,0 -0.9,0.2 -1.2,0.7 1.3,0 1.7,0.4 2,0.8 m -13.6,7.6 c 3.5,0 8,-0.4 8,-1.2 0,-0.5 -3.7,-1.3 -8,-1.3 -4.4,0 -8,0.8 -8,1.3 0,0.5 3.8,1.1 8,1.2" />
  <path
     style="fill:#ffea00"
     id="path72"
     d="m 30.140852,14.3 c 3.5,0 8,-0.4 8,-1.2 0,-0.5 -3.7,-1.3 -8,-1.3 -4.4,0 -8,0.8 -8,1.3 0,0.5 3.8,1.1 8,1.2" />
  <path
     style="fill:#ffea00"
     id="path74"
     d="m 20.540852,8.1 1.3,2.1 1.4,0.3 c 0.3,0 0.4,0.5 0.2,0.6 l -1.4,1 v 0.5 c 2.2,-0.8 4.9,-1 8.1,-1 4,0 6.2,0.4 8,1 V 12 l -1.3,-0.9 c -0.2,-0.2 0,-0.6 0.1,-0.6 l 1.6,-0.4 a 53.3,53.3 0 0 0 1.8,-2.7 c 0.4,-0.9 1.3,-1.3 2.6,-1 -0.4,-0.4 -1.1,-0.3 -1.4,-0.2 l -0.2,-0.1 c 0.2,-0.7 0.3,-1 0.7,-1.5 -1.7,-0.1 -2.3,1.3 -2.3,2 0,0.2 -0.3,0.3 -0.3,0.2 0,-0.6 -0.4,-1.2 -1,-1.3 l -0.1,1 h -0.3 c -0.3,-0.5 -0.5,-0.8 -0.8,-0.8 -0.5,0 -0.8,0.3 -0.6,0.6 0,0 0,0.1 -0.2,0 -0.2,0 -0.4,0.1 -0.4,0.5 0,0.5 0.4,0.7 1,0.7 0.2,0 0.3,0 0.2,0.2 l -0.5,0.4 c 0.1,0.1 0.5,0.3 1.2,0.3 0.6,0 1.1,-0.2 1.3,-0.4 0.1,-0.1 0.3,0 0.2,0.2 -0.4,1.2 -3.3,2.4 -4.9,0.2 -1.3,1 -3.4,0.8 -4.1,-1 -0.1,-0.3 0.1,-0.5 0.3,-0.3 l 1.3,0.4 h 0.8 l -0.2,-0.4 c 0,-0.1 0,-0.2 0.2,0 l 0.6,0.1 c 0.7,0 1,-0.5 1,-0.7 0,-0.2 -0.1,-0.3 -0.3,-0.3 -0.1,0 -0.1,-0.1 0,-0.2 l 0.2,-0.4 c 0,-0.2 -0.2,-0.4 -0.7,-0.4 l -0.9,0.3 h -0.2 c 0,-0.2 0,-0.4 0.2,-0.7 -0.3,-0.1 -1.1,0.2 -1.9,0.9 0,0.1 -0.3,-0.1 -0.2,-0.2 1,-0.6 1.6,-1.2 1.6,-1.7 0,-0.3 -0.1,-0.5 -0.3,-0.6 -0.1,0.4 -0.5,0.6 -0.7,0.6 0,0 -0.2,0 -0.1,-0.2 l 0.1,-0.9 c 0,-0.4 -0.3,-0.8 -0.6,-0.8 -0.2,0 -0.3,0 -0.4,0.2 0,0.1 -0.1,0.1 -0.2,0 0,-0.2 -0.2,-0.2 -0.4,-0.2 -0.3,0 -0.6,0.4 -0.6,0.8 l 0.2,1 h -0.2 c -0.4,0 -0.6,-0.2 -0.7,-0.5 l -0.2,0.6 c 0,0.6 0.5,1 1.5,1.7 0.1,0 0,0.3 -0.1,0.2 -0.8,-0.7 -1.6,-1 -1.9,-1 0.2,0.5 0.2,0.6 0.1,0.8 h -0.2 c -0.2,-0.1 -0.5,-0.3 -0.8,-0.3 -0.4,0 -0.7,0.3 -0.7,0.6 0,0 0,0.2 0.3,0.3 v 0.1 c -0.3,0 -0.4,0.2 -0.4,0.4 0,0.3 0.4,0.6 0.8,0.6 l 0.8,-0.2 c 0.1,-0.1 0.2,0 0.2,0.1 l -0.2,0.5 c 0.6,0 1.4,-0.1 2,-0.5 0.3,-0.1 0.4,0.1 0.4,0.2 -0.3,1.4 -2.5,2.4 -4.2,1.2 -1.7,2 -4,1.1 -4.8,-0.3 -0.1,-0.1 0,-0.4 0.1,-0.2 0.3,0.2 0.8,0.4 1.4,0.4 0.5,0 0.9,0 1.1,-0.3 -0.2,0 -0.4,-0.3 -0.5,-0.4 l 0.1,-0.3 c 1,0.2 1.2,-0.2 1.2,-0.5 0,-0.4 -0.2,-0.6 -0.5,-0.5 -0.2,0 -0.3,0 -0.2,-0.1 0.2,-0.3 0,-0.6 -0.5,-0.6 -0.3,0 -0.5,0.3 -0.8,0.6 h -0.3 c -0.1,-0.2 -0.2,-0.5 0,-0.8 -0.7,0 -1,0.6 -1.2,1.3 l -0.2,-0.1 c 0,-0.7 -0.7,-2.2 -2.3,-2.1 0.4,0.4 0.5,0.8 0.7,1.4 0,0.2 -0.2,0.2 -0.3,0.2 a 2,2 0 0 0 -1.2,0.1 c 0.8,-0.1 1.8,0.1 2.4,1 0.2,0.2 0.6,0.5 0.6,0.8" />
  <path
     style="fill:#32276b"
     id="path76"
     d="m 29.840852,8.9 -0.8,0.7 -0.2,0.3 c 0,0 0,0.2 0.2,0.3 l 0.8,0.7 h 0.6 l 0.8,-0.7 0.2,-0.2 c 0,-0.2 0,-0.3 -0.2,-0.3 l -0.8,-0.7 -0.2,-0.2 -0.4,0.1 m -5,1.9 v -0.6 l 0.3,-0.4 1.5,-0.2 0.4,0.3 0.1,0.7 a 1,1 0 0 0 -0.3,0.3 l -1.6,0.2 -0.3,-0.3 m -4.8,-3.8 c 0,-0.6 -0.4,-1.5 -0.8,-1.7 h -0.1 c 0.3,0.3 0.6,1.2 0.7,1.6 0,0 0.2,0.2 0.2,0 m 9.7,-0.6 c 0,-0.3 0.1,-0.5 0.4,-0.5 0.2,0 0.4,0.2 0.4,0.5 0,0.4 -0.2,0.5 -0.5,0.5 -0.3,0 -0.4,-0.2 -0.4,-0.5 m -2.7,-0.2 h 2.2 a 61,61 0 0 0 -2.2,0 m 3.3,-0.8 h -0.3 a 124.4,124.4 0 0 0 0.2,-2.3 l 0.1,2.3 m 0.8,0.8 h 2.2 c 0.1,0 0.1,0.1 0,0.1 l -2.1,0.1 c -0.2,0 -0.2,-0.2 0,-0.2 m -8.3,0.8 -2,0.7 -0.2,-0.1 2.2,-0.7 m 17.3,0.2 c 0,-0.6 0.5,-1.4 0.7,-1.7 0,0 0.1,0 0,0 l -0.6,1.6 c 0,0 -0.2,0.2 -0.1,0 m -2.8,0 2,0.7 V 7.4 l -2,-0.6 c 0,0 -0.1,0 0,0 m -2.1,4 v -0.6 a 0.6,0.6 0 0 1 -0.2,-0.4 l -1.5,-0.2 -0.4,0.2 -0.1,0.7 0.3,0.4 1.5,0.2 c 0.1,-0.2 0.2,-0.2 0.4,-0.3 m -5.2,1.4 c 4.7,0 7.2,0.6 7.2,1 0,0.2 -0.5,0.3 -0.6,0.3 0,0 -0.1,-0.1 0,-0.2 l 0.2,-0.1 c 0,-0.3 -2.3,-0.8 -6.8,-0.8 -3.8,0 -6.6,0.5 -6.6,0.8 h 0.1 c 0.1,0.1 0.1,0.2 0,0.2 -0.2,0 -0.5,0 -0.5,-0.2 0,-0.6 3.8,-1 7,-1" />
  <path
     style="fill:#ffea00"
     id="path78"
     d="m 30.040852,9.1 h 0.2 l 0.8,0.7 V 10 l -0.9,0.6 h -0.1 a 26.7,26.7 0 0 0 -0.9,-0.8 l 1,-0.7 m -8.2,2.7 h 0.2 l 1.1,-0.9 v -0.2 l -1.4,-0.2 v 0 c -0.2,0.4 -0.2,1 0.1,1.3 m 16.5,-1.3 h -0.1 l -1.3,0.2 v 0.2 l 1.1,0.8 h 0.1 c 0.3,-0.2 0.4,-1 0.2,-1.2 m -13.3,0.2 0.2,0.1 a 38.3,38.3 0 0 1 1.5,-0.3 V 10 l -0.3,-0.1 a 36,36 0 0 1 -1.5,0.3 l 0.1,0.5 m 9.9,0 -0.2,0.1 -1.3,-0.2 -0.2,-0.1 V 10 l 0.3,-0.1 a 35,35 0 0 0 1.5,0.3 l -0.1,0.5" />
  <path
     style="fill:#32276b"
     id="path80"
     d="m 78.840852,7 c -0.3,-2.8 -0.6,-3.5 -2.4,-3.5 h -0.8 v 8.4 c 0,0.8 0.3,0.9 0.7,0.9 h 1.5 v 0.6 h -6 v -0.6 h 1.4 c 0.4,0 0.8,-0.1 0.8,-0.9 V 3.5 h -0.9 c -1.8,0 -2.1,0.7 -2.4,3.5 h -0.5 V 2.9 h 9 V 7 h -0.4 m 6,6.4 v -0.6 h 0.5 c 0.4,0 0.8,-0.1 0.8,-0.9 v -4 c 0,-0.3 -0.1,-1.2 -1.1,-1.2 -1.4,0 -2.3,1.4 -2.3,3 v 2.2 c 0,0.8 0.3,1 0.8,1 h 0.5 v 0.5 h -4.2 v -0.6 h 0.7 c 0.5,0 0.8,-0.1 0.8,-0.9 V 4.3 c 0,-0.8 -0.4,-0.9 -0.8,-0.9 h -0.7 V 2.9 h 3 v 4.5 c 0.4,-0.8 1.3,-1.5 2.5,-1.5 1.4,0 2.2,1 2.3,1.8 v 4.2 c 0,0.8 0.3,1 0.7,1 h 0.7 v 0.5 h -4.2 m 7.9,0.1 c -2.6,0 -3.5,-1.9 -3.5,-3.4 0,-2 1.2,-4.2 3.4,-4.2 1.8,0 2.9,1.7 2.9,3.8 l -0.2,0.2 h -4.6 c 0,2 0.7,3 2.2,3 1.6,0 2.1,-1.3 2.1,-2.3 h 0.6 c 0,1.4 -0.8,2.9 -3,2.9 m 0,-7 c -1,0 -1.8,1.1 -2,2.8 h 3.4 c 0.2,-1.1 -0.3,-2.8 -1.4,-2.8 z m -13.2,12 c -0.5,0 -0.8,0.1 -0.8,0.9 v 5.5 c 0,1.4 -0.7,3.7 -3.7,3.7 -2.5,0 -3.6,-1.6 -3.8,-2.8 v -6.4 c 0,-0.8 -0.3,-1 -0.7,-1 h -1 v -0.5 h 5.3 v 0.6 h -1.3 c -0.4,0 -0.8,0.1 -0.8,0.9 v 5.9 c 0,2 1.4,2.6 2.5,2.6 1.5,0 2.7,-0.9 2.7,-3 v -5.4 c 0,-0.8 -0.3,-1 -0.8,-1 h -1.2 V 18 h 4.6 v 0.6 h -1 m 5.4,9.8 v -0.5 h 0.5 c 0.4,0 0.7,-0.2 0.7,-1 v -4 c 0,-0.3 0,-1.2 -1,-1.2 -1.4,0 -2.2,1.5 -2.2,3 V 27 c 0,0.7 0.4,0.9 0.8,0.9 h 0.5 v 0.5 h -4.1 v -0.5 h 0.7 c 0.4,0 0.7,-0.2 0.7,-1 v -4.4 c 0,-0.8 -0.3,-0.9 -0.8,-0.9 h -0.7 v -0.5 h 2.9 v 1.4 c 0.4,-0.8 1.1,-1.5 2.4,-1.5 1.3,0 2.1,1 2.2,1.8 V 27 c 0,0.7 0.4,0.9 0.8,0.9 h 0.6 v 0.5 h -4 m 4.4,0 v -0.5 h 0.6 c 0.5,0 0.8,-0.2 0.8,-1 v -4.4 c 0,-0.8 -0.3,-0.9 -0.8,-0.9 h -0.7 v -0.5 h 2.9 V 27 c 0,0.7 0.3,0.9 0.8,0.9 h 0.7 v 0.5 h -4.3 m 2,-8.6 c -0.5,0 -1,-0.5 -1,-1 0,-0.6 0.5,-1 1,-1 0.4,0 0.8,0.4 0.8,1 0,0.5 -0.4,1 -0.9,1 z m 9.599998,1.8 c -0.5,0 -0.899998,0.3 -0.999998,1 l -2.4,5.8 h -0.7 l -2.1,-5.9 c -0.3,-0.7 -0.7,-0.9 -1.2,-0.9 h -0.5 v -0.5 h 4.3 v 0.5 h -0.6 c -0.5,0 -0.9,0.2 -0.6,1 l 1.5,4 1.5,-3.8 c 0.2,-0.6 0.2,-1.2 -0.5,-1.2 h -0.5 v -0.5 h 2.999998 v 0.5 h -0.2 m 3.8,7 c -2.6,0 -3.5,-2 -3.5,-3.5 0,-2 1.2,-4.2 3.3,-4.2 2,0 3,1.7 3,3.7 l -0.2,0.3 h -4.7 c 0,1.9 0.8,3.1 2.3,3.1 1.5,0 2.1,-1.3 2,-2.2 h 0.7 c 0,1.3 -0.8,2.8 -3,2.8 m 0,-7 c -1,0 -1.8,1 -2,2.6 h 3.4 c 0.1,-1 -0.3,-2.7 -1.4,-2.7 z m 8.7,1.9 a 0.8,0.8 0 0 1 -0.8,-0.8 c 0,-0.6 0.4,-1 0.8,-1.2 -1.2,-0.2 -2.3,1.2 -2.3,3.2 V 27 c 0,0.7 0.3,0.9 0.8,0.9 h 0.8 v 0.5 h -4.4 v -0.5 h 0.6 c 0.5,0 0.8,-0.2 0.8,-1 v -4.4 c 0,-0.8 -0.3,-0.9 -0.8,-0.9 h -0.6 v -0.5 h 2.7 v 1.3 c 0.4,-0.8 1.2,-1.5 2.2,-1.5 0.7,0 1.2,0.6 1.2,1.3 0,0.7 -0.4,1.3 -1,1.3 m 4.8,5.1 c -0.8,0 -1.7,-0.4 -2,-1 l -0.4,0.9 h -0.5 v -3.2 h 0.5 c 0.1,1.2 1,2.7 2.4,2.7 0.6,0 1.3,-0.4 1.3,-1.1 0,-1.7 -4.2,-1.3 -4.2,-3.7 0,-1.3 0.9,-2.3 2.3,-2.3 0.7,0 1.4,0.3 1.9,0.8 l 0.4,-0.7 h 0.4 v 2.8 h -0.5 c -0.3,-1.5 -1,-2.3 -2.1,-2.3 -0.9,0 -1.3,0.6 -1.3,1.1 0,1.8 4.3,1.3 4.3,3.7 0,1.4 -1,2.3 -2.5,2.3 m 3.4,-0.2 v -0.5 h 0.6 c 0.4,0 0.7,-0.2 0.7,-1 v -4.4 c 0,-0.8 -0.3,-0.9 -0.7,-0.9 h -0.7 v -0.5 h 2.8 V 27 c 0,0.7 0.4,0.9 0.8,0.9 h 0.7 v 0.5 h -4.2 m 1.9,-8.6 c -0.5,0 -0.9,-0.5 -0.9,-1 0,-0.6 0.4,-1 0.9,-1 0.5,0 0.9,0.4 0.9,1 0,0.5 -0.4,1 -1,1 z m 5.6,8.7 c -0.6,0 -1.6,-0.5 -1.8,-1.4 v -5.4 h -1 v -0.5 c 1,-0.2 1.6,-0.8 1.7,-3.3 h 0.7 v 3.2 h 2.2 v 0.6 h -2.2 v 4.8 c 0,0.7 0.3,1 0.9,1 0.6,0 1,-0.4 1,-1 v -2.2 h 0.6 v 2.4 c 0,0.9 -0.7,1.8 -2,1.8 m 10,-6.9 c -0.5,0 -0.9,0.3 -1.1,0.9 l -2.8,6.6 c -0.8,2 -1.3,3 -2.6,3 -0.7,0 -1.3,-0.6 -1.3,-1.3 0,-0.6 0.3,-1.2 1,-1.2 0.3,0 0.7,0.4 0.7,0.9 0,0.3 -0.2,0.7 -0.5,1 0.9,0.2 1.9,-1.3 2.4,-3.4 l -2,-5.6 c -0.3,-0.7 -0.7,-0.9 -1.2,-0.9 h -0.3 v -0.5 h 4 v 0.5 h -0.5 c -0.5,0 -0.8,0.2 -0.6,1 l 1.4,3.9 1.5,-3.7 c 0.2,-0.6 0.2,-1.2 -0.5,-1.2 h -0.6 v -0.5 h 3.2 v 0.5 h -0.2 M 74.840852,43.7 c -2.8,0 -4.4,-2.8 -4.4,-5.3 0,-3 1.9,-5.6 4.5,-5.6 3.4,0 4.6,3.4 4.6,5.4 0,3.5 -2,5.5 -4.6,5.5 m 0.1,-10.2 c -2.3,0 -3,2.3 -3,4.9 0,3.7 1.7,4.6 3,4.6 1.8,0 3,-2 3,-4.5 0,-2 -0.6,-5 -3,-5 z m 9.6,1.6 c -0.3,0 -0.7,-0.2 -0.7,-0.7 0,-0.4 0.3,-0.7 0.7,-0.9 l -0.4,-0.2 c -0.8,0 -1.2,0.6 -1.2,1.5 0,0.6 0.1,1.4 0.3,2 h 1.7 v 0.6 h -1.7 V 42 c 0,0.8 0.4,1 0.8,1 h 0.9 v 0.4 h -4.5 v -0.5 h 0.6 c 0.5,0 0.8,-0.1 0.8,-0.9 v -4.5 h -1.4 v -0.6 h 1.4 l -0.2,-1.5 c 0,-1.4 0.9,-2.5 2.3,-2.5 1,0 1.5,0.7 1.5,1.2 0,0.8 -0.5,1 -0.9,1 m -9.2,23.7 c -1.4,0 -2.5,-0.8 -3,-1.5 l -0.6,1.2 h -0.5 v -4.6 h 0.6 c 0.2,2 1.2,4.2 3.4,4.2 1.2,0 2,-0.7 2,-1.8 0,-3.5 -6.1,-1.3 -6.1,-5.6 a 3,3 0 0 1 3,-2.9 c 1.4,0 2.2,0.5 2.8,1.2 l 0.5,-1.2 h 0.4 v 4.5 h -0.5 c -0.2,-2.2 -1.1,-3.8 -3,-3.8 -1.7,0 -2.1,1.2 -2.1,1.8 0,3.2 6.3,1.3 6.3,5.3 0,2.1 -1.7,3.2 -3.2,3.2 m 8.6,-0.3 V 58 h 0.5 c 0.4,0 0.8,-0.1 0.8,-0.9 v -4 c 0,-0.3 -0.1,-1.2 -1.1,-1.2 -1.4,0 -2.2,1.5 -2.2,3 v 2.2 c 0,0.8 0.4,0.9 0.8,0.9 h 0.5 v 0.5 h -4.1 V 58 h 0.7 c 0.4,0 0.7,-0.1 0.7,-0.9 v -8.2 c 0,-0.7 -0.3,-0.8 -0.7,-0.8 h -0.7 v -0.6 h 2.9 v 5.1 c 0.4,-0.8 1,-1.5 2.3,-1.5 1.4,0 2.2,1 2.3,1.8 v 4.2 c 0,0.8 0.3,0.9 0.7,0.9 h 0.7 v 0.5 h -4.1 m 8,0.3 c -2.6,0 -3.5,-2 -3.5,-3.5 0,-2 1.2,-4.3 3.3,-4.3 2,0 3,1.7 3,3.8 l -0.2,0.2 h -4.8 c 0,2 0.8,3.2 2.3,3.2 1.5,0 2.1,-1.3 2,-2.3 h 0.7 c 0,1.4 -0.8,2.9 -3,2.9 m 0,-7.1 c -1,0 -1.8,1 -2,2.7 h 3.4 c 0.1,-1.1 -0.3,-2.7 -1.4,-2.7 z m 8.1,-2.1 a 0.7,0.7 0 0 1 -0.7,-0.7 c 0,-0.4 0.3,-0.7 0.7,-0.9 l -0.8,-0.2 c -1,0 -1.4,0.7 -1.4,1.5 l 0.3,2 h 1.6 v 0.6 h -1.5 v 5.2 c 0,0.8 0.3,0.9 0.7,0.9 h 0.7 v 0.5 h -4.1 V 58 h 0.5 c 0.4,0 0.8,-0.1 0.8,-0.9 v -5.2 h -1.3 v -0.7 h 1.2 l -0.2,-1.5 c 0,-1.3 1.1,-2.5 2.6,-2.5 0.999998,0 1.799998,0.7 1.799998,1.3 0,0.7 -0.5,1.1 -0.899998,1.1" />
  <path
     style="fill:#32276b"
     id="path82"
     d="m 106.44085,50 a 0.9,0.9 0 0 1 -0.9,-0.8 c 0,-0.4 0.2,-0.8 0.6,-1 -0.3,-0.4 -0.8,-0.5 -1.3,-0.5 -1.6,0 -2.4,1.4 -2,3.5 h 1.6 v 0.7 h -1.6 v 5.2 c 0,0.8 0.3,0.9 0.7,0.9 h 0.8 v 0.5 h -4.2 V 58 h 0.5 c 0.4,0 0.8,-0.1 0.8,-0.9 v -5.2 h -1.3 v -0.7 h 1.2 c -0.4,-2 0.7,-4 3.4,-4 1.4,0 2.6,0.8 2.6,1.6 0,0.8 -0.4,1.2 -1,1.2 m -1.5,8.5 V 58 h 0.7 c 0.4,0 0.7,-0.1 0.7,-0.9 v -4.5 c 0,-0.7 -0.3,-0.8 -0.7,-0.8 h -0.7 v -0.6 h 2.8 v 6 c 0,0.7 0.4,0.8 0.8,0.8 h 0.6 v 0.5 z m 8.2,0.3 c -2.6,0 -3.5,-2 -3.5,-3.5 0,-2 1.2,-4.3 3.4,-4.3 1.8,0 2.9,1.7 2.9,3.8 l -0.2,0.2 h -4.6 c 0,2 0.7,3.2 2.2,3.2 1.6,0 2.1,-1.3 2.1,-2.3 h 0.6 c 0,1.4 -0.8,2.9 -3,2.9 m 0,-7.1 c -1,0 -1.7,1 -1.9,2.7 h 3.3 c 0.2,-1.1 -0.3,-2.7 -1.4,-2.7 z m 3.4,6.8 V 58 h 0.7 c 0.4,0 0.8,-0.1 0.8,-0.9 v -8.2 c 0,-0.7 -0.4,-0.8 -0.8,-0.8 h -0.7 v -0.6 h 2.9 v 9.6 c 0,0.8 0.3,0.9 0.7,0.9 h 0.7 v 0.5 h -4.3 m 11.4,0 c -0.5,0 -1,-0.5 -1,-1 -0.3,0.6 -1,1.2 -2,1.2 -2,0 -3.2,-1.7 -3.2,-3.8 0,-1.4 1,-3.9 3.4,-3.9 0.6,0 1.3,0.4 1.7,1 v -3 c 0,-0.8 -0.3,-1 -0.8,-1 h -1.5 v -0.5 h 3.7 v 9.6 c 0,0.8 0.3,0.9 0.8,0.9 h 0.7 v 0.5 h -1.8 m -2.8,-6.8 c -1.1,0 -2,1.4 -2,3 0,2.3 0.9,3.3 1.9,3.3 1.3,0 2,-1.1 2,-3 0,-1.5 -0.5,-3.3 -2,-3.3 z m 6.5,7 a 1,1 0 0 1 -1,-1 c 0,-0.6 0.5,-1 1,-1 0.6,0 1,0.4 1,1 0,0.5 -0.4,1 -1,1 M 41.540852,34 c 0,-2.5 -1,-13 -1,-16.7 0,-0.3 0,-0.3 -0.2,-0.3 l -0.7,0.1 v -0.4 l -0.1,-0.1 h -0.7 v -0.8 l -2,0.2 c -1.9,0 -3,-0.6 -4.4,-0.6 -0.6,0 -1.3,0.1 -2,0.4 h -0.5 a 4,4 0 0 0 -1.6,-0.4 c -1.5,0 -3.4,0.7 -5.1,0.7 -1,0 -1.7,-0.3 -2.1,-0.5 v 0.7 h -0.6 l -0.1,0.1 v 0.4 a 8,8 0 0 1 -0.7,0 c -0.1,0 -0.2,0 -0.2,0.2 l -1.2,17.3 c 0,0.4 0,0.6 0.5,0.4 1,-0.3 5.7,-1.7 9.4,-1.3 -0.3,1.2 4,1.2 3.8,0 3.4,-0.4 8.6,1.1 9,1.2 0.4,0 0.5,-0.1 0.4,-0.6" />
  <path
     style="fill:#ffea00"
     id="path84"
     d="m 29.640852,33 a 8,8 0 0 0 -3.2,-0.4 c -3.2,0 -5.4,1 -7,0.7 l -0.2,-0.1 1.2,-16 h -0.4 l -1.3,16.9 c 0,0.2 0,0.2 0.2,0.2 0,0 3.9,-1.3 7.5,-1.3 l 2.2,0.2 c -0.1,1 3.4,0.9 3.2,0.2 v -0.2 l 2,-0.2 c 2.8,0 7,1 7.1,1 0.2,0 0.2,0 0.2,-0.2 l -1,-16.3 c 0,-0.1 0.1,-0.2 0,-0.2 h -0.3 c 0,3 0.9,15.8 0.9,15.9 h -0.2 l -1,0.1 c -1.4,0 -3.8,-0.7 -6,-0.7 -1,0 -2.2,0.3 -2.6,0.4 -0.4,0.2 -0.7,0.2 -1.2,0" />
  <path
     style="fill:#ffffff"
     id="path86"
     d="m 30.040852,16.4 -0.1,-0.2 c -0.2,-0.2 -0.7,-0.5 -1.4,-0.5 -1.8,0 -3.5,0.8 -5.3,0.8 l -1.6,-0.2 c 0,0.9 -1,14.2 -1,15.8 1.4,0.3 3,-0.8 6.1,-0.8 2,0 3.2,0.6 3.4,0.7 0.2,0.1 0.2,0.1 0.4,0 0.6,-0.3 1.9,-0.6 3.4,-0.6 2.1,0 4.1,1 5.3,0.7 0.2,-5.2 -0.8,-11.6 -0.8,-15.8 l -1.4,0.1 c -1.9,0 -3,-0.7 -4.6,-0.7 -1,0 -1.6,0.4 -1.8,0.5 l -0.1,0.2 c 0,3.3 0,12 -0.2,15.1 0,0.2 -0.3,0.2 -0.3,0 v -15" />
  <path
     style="fill:#ffffff"
     id="path88"
     d="m 39.340852,17 v -0.1 h -0.5 c 0,5 0.9,12 0.7,15.6 -1.4,0.3 -3.3,-0.6 -5.8,-0.6 a 8,8 0 0 0 -3.3,0.5 h -0.4 a 10,10 0 0 0 -3.4,-0.5 c -3.6,0 -4.6,0.7 -6.5,0.6 l 1,-16 h -0.3 l -0.1,0.2 -1.2,16.2 c 2,0.3 3.7,-0.6 6.8,-0.6 1.6,0 2.7,0.1 3.5,0.5 h 0.9 c 0.7,-0.4 1.6,-0.5 2.5,-0.5 3,0 5.3,1 6.9,0.8 v -0.2 l -0.9,-16" />
  <path
     style="fill:#db0d15"
     id="path90"
     d="m 22.540852,26.3 -0.4,-0.2 c -0.1,0 -0.3,0 -0.3,0.2 h -0.2 l 0.1,-4.1 c 0,-0.4 0,-0.4 -0.3,-0.3 0,0 -0.1,-0.2 0,-0.2 l 0.8,-0.3 v 0.5 l 0.5,-0.5 h 0.2 c 0.4,0.2 0.9,1 0.8,2.5 0,0.5 -0.7,2.4 -1.2,2.4 m 0.1,-4.4 -0.3,0.4 -0.2,3.4 0.4,0.3 h 0.1 c 0.4,-0.3 0.6,-1 0.6,-1.5 0,-1.6 -0.3,-2.6 -0.6,-2.6 z" />
  <path
     style="fill:#32276b"
     id="path92"
     d="m 24.540852,26 a 80.4,80.4 0 0 0 -0.3,-2.3 c 0,-0.2 -0.2,-0.2 -0.4,-0.2 v -0.2 l 0.9,-0.3 v 0.1 c 0,0.4 0,2.2 -0.2,3 m 0,-3.6 c 0,0.2 -0.2,0.1 -0.2,0 l -0.1,-0.3 -0.2,-0.2 v -0.1 l 0.6,-0.2 z m 1.1,3.5 a 1,1 0 0 1 -0.7,-0.3 c 0,0 -0.1,-0.1 0,-0.1 l 0.2,-0.4 c 0.2,0.3 0.4,0.6 0.6,0.6 0.2,0 0.3,-0.3 0.3,-0.6 0,-0.3 -1,-0.3 -1,-1.2 0,-0.3 0,-0.7 0.6,-1 0.1,-0.1 0.1,-0.1 0.2,0 l 0.5,0.3 -0.1,0.3 h -0.2 l -0.4,-0.3 c -0.2,0 -0.2,0.2 -0.2,0.4 0,0.5 1,0.5 1,1.2 0,0.4 -0.3,1.1 -0.8,1.1 m 1.8,0 c -0.6,0 -0.9,-0.7 -0.9,-1.4 0,-0.6 0.5,-1.2 0.8,-1.5 h 0.2 l 0.4,0.4 0.2,0.1 -0.3,0.3 h -0.2 l -0.3,-0.4 c -0.2,0.2 -0.3,0.5 -0.3,0.8 0,0.9 0.3,1.3 0.6,1.3 0.2,0 0.3,-0.2 0.4,-0.4 0,0 0.1,0 0,0.1 -0.1,0.4 -0.2,0.7 -0.6,0.7 m 1.5,0 c -0.5,0 -0.8,-0.7 -0.8,-1.4 0,-0.6 0.4,-1.2 0.7,-1.5 h 0.3 c 0,0 0.6,0.4 0.6,0.8 l -1,1 c 0,0.5 0.2,0.7 0.5,0.7 0.3,0 0.4,-0.1 0.6,-0.3 -0.2,0.5 -0.4,0.7 -0.9,0.7 m 0,-2.6 h -0.1 c -0.2,0.3 -0.2,0.6 -0.2,0.9 v 0.4 c 0.2,-0.2 0.6,-0.5 0.6,-0.8 l -0.4,-0.4 z" />
  <path
     style="fill:#db0d15"
     id="path94"
     d="m 31.840852,26.2 -0.3,-0.1 h -0.3 a 1068,1068 0 0 0 -0.2,-4 c 0,-0.2 -0.1,-0.3 -0.3,-0.3 -0.1,0 -0.2,0 0,0 l 0.7,-0.4 0.1,0.1 v 0.3 l 0.5,-0.4 c 0,-0.1 0.1,-0.1 0.2,0 0.5,0.2 0.9,0.9 0.9,2.5 0,0.7 -0.7,2.3 -1.2,2.3 m 0,-4.4 c -0.2,0 -0.3,0.2 -0.4,0.4 v 3.5 c 0.3,0 0.3,0.2 0.4,0.2 h 0.1 c 0.4,-0.4 0.5,-1.1 0.5,-1.7 0,-1.8 -0.4,-2.4 -0.6,-2.4 z" />
  <path
     style="fill:#32276b"
     id="path96"
     d="m 34.140852,26 c -0.5,0 -0.8,-0.7 -0.8,-1.4 0,-0.8 0.6,-1.6 1,-1.6 0.5,0 0.8,0.8 0.8,1.5 0,0.6 -0.6,1.5 -1,1.5 m 0,-2.6 c -0.3,0 -0.4,0.3 -0.4,0.6 0,1 0.4,1.6 0.6,1.6 0.3,0 0.4,-0.3 0.4,-0.6 0,-0.9 -0.4,-1.6 -0.7,-1.6 z m 2,2.6 c -0.5,0 -0.8,-0.7 -0.8,-1.4 0,-0.6 0.4,-1.2 0.8,-1.5 0.1,-0.1 0.1,-0.1 0.2,0 l 0.4,0.4 c 0,0 0.2,0 0.1,0.2 l -0.2,0.2 h -0.2 c -0.2,0 -0.3,-0.3 -0.4,-0.4 -0.2,0 -0.2,0.3 -0.2,0.6 0,1 0.3,1.5 0.6,1.5 0.2,0 0.3,-0.2 0.5,-0.3 -0.2,0.4 -0.3,0.7 -0.8,0.7 m 1.7,0 c -0.5,0 -0.8,-0.6 -0.8,-1.3 0,-0.6 0.3,-1.3 0.8,-1.6 h 0.2 c 0.2,0 0.7,0.6 0.7,1 l -1.2,0.7 c 0,0.5 0.4,0.8 0.6,0.8 0.3,0 0.5,-0.2 0.6,-0.4 v 0.1 c -0.2,0.4 -0.4,0.7 -0.8,0.7 m -0.1,-2.5 h -0.1 c -0.2,0.1 -0.3,0.5 -0.3,0.8 v 0.4 c 0.3,-0.1 0.7,-0.4 0.7,-0.6 0,-0.3 -0.1,-0.5 -0.3,-0.6 z" />
</svg>
