<?xml version="1.0" encoding="UTF-8"?>
<svg version="1.0" viewBox="0 0 64 64" >
<defs>
<linearGradient id="p">
<stop stop-color="#e62a25" offset="0"/>
<stop stop-color="#fa6352" stop-opacity="0" offset="1"/>
</linearGradient>
<linearGradient id="q">
<stop stop-color="#d41b06" offset="0"/>
<stop stop-color="#fa6352" stop-opacity="0" offset="1"/>
</linearGradient>
<linearGradient id="r">
<stop stop-color="#f44533" offset="0"/>
<stop stop-color="#fa6352" stop-opacity="0" offset="1"/>
</linearGradient>
<linearGradient id="s">
<stop stop-color="#fa6352" offset="0"/>
<stop stop-color="#fa6352" stop-opacity="0" offset="1"/>
</linearGradient>
<linearGradient id="t">
<stop stop-color="#f58474" offset="0"/>
<stop stop-color="#f58474" stop-opacity="0" offset="1"/>
</linearGradient>
<linearGradient id="u">
<stop stop-color="#fff" offset="0"/>
<stop stop-color="#fff" stop-opacity="0" offset="1"/>
</linearGradient>
<linearGradient id="v">
<stop stop-color="#ef171c" offset="0"/>
<stop stop-color="#ef171c" stop-opacity="0" offset="1"/>
</linearGradient>
<linearGradient id="a">
<stop stop-color="#f9cdc0" offset="0"/>
<stop stop-color="#f9cdc0" stop-opacity="0" offset="1"/>
</linearGradient>
<linearGradient id="c" x1="329.63" x2="372.74" y1="479.66" y2="483.79" gradientTransform="matrix(2.745 0 0 1.8758 -680.11 -427.54)" gradientUnits="userSpaceOnUse" xlink:href="#v"/>
<linearGradient id="i" x1="322.75" x2="164.97" y1="415.74" y2="509.25" gradientUnits="userSpaceOnUse" xlink:href="#q"/>
<linearGradient id="h" x1="248.72" x2="247.33" y1="475.98" y2="460" gradientUnits="userSpaceOnUse" xlink:href="#s"/>
<linearGradient id="g" x1="289.19" x2="228.79" y1="457.72" y2="505.32" gradientUnits="userSpaceOnUse" xlink:href="#t"/>
<linearGradient id="f" x1="243.39" x2="243.16" y1="487.43" y2="477.17" gradientUnits="userSpaceOnUse" xlink:href="#p"/>
<linearGradient id="e" x1="327.66" x2="344.81" y1="485.48" y2="489.95" gradientUnits="userSpaceOnUse" xlink:href="#a"/>
<linearGradient id="b" x1="262.12" x2="355.49" y1="488.53" y2="452.07" gradientUnits="userSpaceOnUse" xlink:href="#u"/>
<linearGradient id="o" x1="341.08" x2="340.73" y1="497.26" y2="770.13" gradientTransform="matrix(-2.2383 0 0 .16754 1007.8 363.87)" gradientUnits="userSpaceOnUse" xlink:href="#a"/>
<linearGradient id="d" x1="245.17" x2="245.17" y1="473.23" y2="490.4" gradientUnits="userSpaceOnUse" xlink:href="#r"/>
<filter id="w">
<feGaussianBlur stdDeviation="0.7334268"/>
</filter>
<linearGradient id="n" x1="334.42" x2="327.77" y1="481.47" y2="494.59" gradientUnits="userSpaceOnUse" xlink:href="#a"/>
<linearGradient id="m" x1="336.9" x2="353.7" y1="493.38" y2="703.88" gradientTransform="matrix(-2.2383 0 0 .16754 1007.8 363.87)" gradientUnits="userSpaceOnUse" xlink:href="#a"/>
<linearGradient id="l" x1="323.81" x2="337.82" y1="490.9" y2="477.18" gradientUnits="userSpaceOnUse" xlink:href="#a"/>
<linearGradient id="k" x1="206" x2="195.5" y1="486.29" y2="451.29" gradientUnits="userSpaceOnUse">
<stop stop-color="#9b1714" offset="0"/>
<stop stop-color="#bc1c19" stop-opacity="0" offset="1"/>
</linearGradient>
<linearGradient id="j" x1="333.68" x2="345.31" y1="449.94" y2="449.3" gradientUnits="userSpaceOnUse">
<stop stop-color="#fed482" offset="0"/>
<stop stop-color="#cbb781" offset=".5"/>
<stop stop-color="#fed482" offset="1"/>
</linearGradient>
</defs>
<g transform="translate(-230.14 -571.71)">
<path transform="translate(-.08334)" d="m264.88 439.97c-4.3715 0.03774-9.4097 1.2621-15.125 3.9062-1.3562 0.62744-2.9818 0.89008-4.5312 0.71875v67.125c0.20037 0.00254 0.3927 0.03125 0.59375 0.03125 22.671 0 41.438-16.196 41.438-36.156 0.39944-20.627-6.7624-35.76-22.375-35.625z" fill="#bc1c19"/>
<path transform="translate(-.08334)" d="m263.56 442.44c-4.0695 0.03513-8.7421 1.1948-14.062 3.6562-1.2828 0.59344-2.818 0.79933-4.2812 0.625v62.531c0.20853 0.00296 0.41568 0 0.625 0 21.105 0 38.563-15.075 38.562-33.656 0.37184-19.202-6.3097-33.282-20.844-33.156z" fill="url(#c)"/>
<path transform="translate(-.08334)" d="m263.56 442.44c-4.0695 0.03513-8.7421 1.1948-14.062 3.6562-1.2828 0.59344-2.818 0.79933-4.2812 0.625v62.531c0.20853 0.00296 0.41568 0 0.625 0 21.105 0 38.563-15.075 38.562-33.656 0.37184-19.202-6.3097-33.282-20.844-33.156z" fill="url(#i)"/>
<path transform="matrix(-1 0 0 1 490.44 0)" d="m264.88 439.97c-4.3715 0.03774-9.4097 1.2621-15.125 3.9062-1.3562 0.62744-2.9818 0.89008-4.5312 0.71875v67.125c0.20037 0.00254 0.3927 0.03125 0.59375 0.03125 22.671 0 41.438-16.196 41.438-36.156 0.39944-20.627-6.7624-35.76-22.375-35.625z" fill="#bc1c19"/>
<path transform="matrix(-1 0 0 1 490.44 0)" d="m263.56 442.44c-4.0695 0.03513-8.7421 1.1948-14.062 3.6562-1.2828 0.59344-2.818 0.79933-4.2812 0.625v62.531c0.20853 0.00296 0.41568 0 0.625 0 21.105 0 38.563-15.075 38.562-33.656 0.37184-19.202-6.3097-33.282-20.844-33.156z" fill="url(#c)"/>
<path transform="matrix(1.0905 0 0 1.8136 -23.24 -394.59)" d="m266.61 479.95a20.714 13.482 0 1 1-41.429 0 20.714 13.482 0 1 1 41.429 0z" fill="url(#h)"/>
<path transform="matrix(-1 0 0 1 490.44 0)" d="m263.56 442.44c-4.0695 0.03513-8.7421 1.1948-14.062 3.6562-1.2828 0.59344-2.818 0.79933-4.2812 0.625v62.531c0.20853 0.00296 0.41568 0 0.625 0 21.105 0 38.563-15.075 38.562-33.656 0.37184-19.202-6.3097-33.282-20.844-33.156z" fill="url(#g)"/>
<path transform="matrix(1.0905 0 0 .66162 -23.24 173.83)" d="m266.61 479.95a20.714 13.482 0 1 1-41.429 0 20.714 13.482 0 1 1 41.429 0z" fill="url(#f)"/>
<path transform="matrix(-1 0 0 1 584.25 -7.4036)" d="m356.19 458.94c-1.569 0.02816-3.2223 0.41237-5.0625 0.65625-2.8659 0.37982-5.0224 3.1309-6.25 6.0625-0.60091 6.6204-0.71003 6.2067 2.3125 10.406 0.17466 0.1666 0.53845-0.31716 0.96875-0.53125 2.4169-1.2025 7.8515-3.1882 9.5625-0.9375 4.952 6.5141 4.5281 13.502-12.938 23.844-3.1092 1.8411-1.4138 7.4216-1 7.8438 1.2594 1.2846 2.955 2.7038 4.7812 2.3125 13.411-2.8737 23.438-12.775 23.438-25.531 0.29578-15.274-4.8294-24.322-15.812-24.125z" fill="#e42b26"/>
<path transform="matrix(.61777 .78636 -.78636 .61777 407.99 -85.213)" d="m340.64 486.67c0 3.4993-3.5804 4.4437-7.8683 4.4437-4.2878 0-7.7678-2.84-7.7678-6.3393 5.0816-13.984 12.355 5.1804 15.636 1.8956z" fill="url(#e)"/>
<path transform="matrix(-1 0 0 1 584.25 -7.4036)" d="m356.22 461.03c-1.4068 0.02525-2.9372 0.20744-4.625 0.59375-3.3171 1.3525-4.2192 2.5167-4.6875 5.0625-0.20107 2.3435-0.35154 4.0228-0.21875 4.625 0.09278 0.42075 0.81087 1.3866 1.2812 2.0938 1.3275-0.61516 2.9684-1.322 4.8438-1.6875 1.0822-0.21094 2.1756-0.31723 3.3125-0.15625s2.4122 0.67917 3.25 1.7812c2.7101 3.5649 4.1701 7.9877 2.1875 12.562s-6.8156 9.0406-15.719 14.312c-0.6196 0.36689-0.88027 1.2543-0.8125 2.5625 0.03388 0.65408 0.18067 1.3344 0.3125 1.8125 0.04597 0.16673 0.05593 0.26912 0.09375 0.375 0.52395 0.51776 1.0838 1.0055 1.5625 1.2812 0.53081 0.30583 0.84428 0.37265 1.125 0.3125 12.662-2.7132 21.781-11.833 21.781-23.5-8e-5 -0.01042-8e-5 -0.02083 0-0.03125 0.14324-7.3968-1.0622-13.104-3.3438-16.719s-5.4287-5.3695-10.344-5.2812z" fill="#cc171c"/>
<path transform="matrix(.56733 -.27933 .27933 .56733 -61.948 270.33)" d="m278.55 467.55c-0.55619 4.4044-3.3733 7.927-4.3563 7.6393-0.84991-0.24877-3.9894-3.0499-4.3563-7.2605-0.26927-3.09 2.6486-3.9775 4.3563-3.9775 1.7077 0 4.3563 0.49699 4.3563 3.5987z" fill="#fcd465"/>
<path transform="matrix(.54107 .084866 -.084866 .54107 124.04 182.89)" d="m278.55 467.55c-0.55619 4.4044-3.3733 7.927-4.3563 7.6393-0.84991-0.24877-3.9894-3.0499-4.3563-7.2605-0.26927-3.09 2.6486-3.9775 4.3563-3.9775 1.7077 0 4.3563 0.49699 4.3563 3.5987z" fill="#fcd465"/>
<path transform="matrix(.30573 -.56225 .56225 .30573 -128.66 476.99)" d="m278.55 467.55c-0.55619 4.4044-3.3733 7.927-4.3563 7.6393-0.84991-0.24877-3.9894-3.0499-4.3563-7.2605-0.26927-3.09 2.6486-3.9775 4.3563-3.9775 1.7077 0 4.3563 0.49699 4.3563 3.5987z" fill="#fcd465"/>
<path transform="matrix(-.053846 -.52677 .52677 -.053846 -14.569 645.93)" d="m278.55 467.55c-0.55619 4.4044-3.3733 7.927-4.3563 7.6393-0.84991-0.24877-3.9894-3.0499-4.3563-7.2605-0.26927-3.09 2.6486-3.9775 4.3563-3.9775 1.7077 0 4.3563 0.49699 4.3563 3.5987z" fill="#fcd465"/>
<path transform="matrix(-.35966 -.52937 .52937 -.35966 71.021 798.44)" d="m278.55 467.55c-0.55619 4.4044-3.3733 7.927-4.3563 7.6393-0.84991-0.24877-3.9894-3.0499-4.3563-7.2605-0.26927-3.09 2.6486-3.9775 4.3563-3.9775 1.7077 0 4.3563 0.49699 4.3563 3.5987z" fill="#fcd465"/>
<path transform="matrix(-.37663 -.4224 .4224 -.37663 131.23 783.27)" d="m278.55 467.55c-0.55619 4.4044-3.3733 7.927-4.3563 7.6393-0.84991-0.24877-3.9894-3.0499-4.3563-7.2605-0.26927-3.09 2.6486-3.9775 4.3563-3.9775 1.7077 0 4.3563 0.49699 4.3563 3.5987z" fill="#fcd465"/>
<path transform="matrix(-.41584 -.29226 .29226 -.41584 210.51 770.34)" d="m278.55 467.55c-0.55619 4.4044-3.3733 7.927-4.3563 7.6393-0.84991-0.24877-3.9894-3.0499-4.3563-7.2605-0.26927-3.09 2.6486-3.9775 4.3563-3.9775 1.7077 0 4.3563 0.49699 4.3563 3.5987z" fill="#fcd465"/>
<path transform="matrix(1.0766 0 0 .88624 -120.67 44.768)" d="m306.41 473.53c3.0534-16.967 18.328-26.718 31.002-13.833 0.36009-1.8769 1.2197-2.0291 0.36357-2.8168-12.323-11.338-31.202-1.39-31.365 16.65z" fill="url(#b)"/>
<path transform="matrix(-1.0766 0 0 .88624 611.03 44.768)" d="m306.41 473.53c3.0534-16.967 18.328-26.718 31.002-13.833 0.36009-1.8769 1.2197-2.0291 0.36357-2.8168-12.323-11.338-31.202-1.39-31.365 16.65z" fill="url(#b)"/>
<path transform="matrix(1.1587 0 0 .77809 -148.6 94.116)" d="m334.72 448.25c-0.27668 0.54866-0.4375 1.1502-0.4375 1.7812 0 2.5629 2.52 4.6562 5.625 4.6562 3.105 0 5.625-2.0934 5.625-4.6562 0-0.63105-0.16082-1.2326-0.4375-1.7812-0.84367 1.0373-2.9959 0.17474-5.3416 0.17474-2.3457 0-4.1897 0.86254-5.0334-0.17474z" fill="#fed482"/>
<path transform="matrix(1 0 0 .91973 0 37.578)" d="m244.62 443.66c-4.6313-0.24633-1.3274 2.2346-1.8438 7.6562 1.0164 6.7856-4.5245 18.839 1.1964 18.948 0.35372 0.00679 0.85256-2.1583 1.1473-2.1982 0.02776 0.00427 0.06533-0.00385 0.09375 0 0.29476 0.03991 0.43646 2.205 0.79018 2.1982 5.7209-0.10971 0.53718-12.163 1.5536-18.948-0.38996-5.5166 2.7838-6.8366-1.8438-7.6562-0.17024 0-0.33383 0.01999-0.5 0.03125-0.03127-0.0018-0.0627 0.0021-0.09375 0-0.16617-0.01126-0.32976-0.03125-0.5-0.03125z" fill="url(#o)"/>
<path transform="matrix(1 0 0 1.2651 0 -124.05)" d="m244.25 467.88c-2.9214 0-5.2813 5.751-5.2812 12.812-1e-5 7.0614 2.3598 12.781 5.2812 12.781 0.32317 0 0.63064-0.08436 0.9375-0.21875 0.29853 0.12726 0.59206 0.21875 0.90625 0.21875 2.9214 0 5.2813-5.7198 5.2812-12.781 0-7.0614-2.3598-12.812-5.2812-12.812-0.31419 0-0.60772 0.09149-0.90625 0.21875-0.30686-0.13439-0.61434-0.21875-0.9375-0.21875z" fill="url(#d)"/>
<path transform="translate(-93.901 -7.4036)" d="m356.19 458.94c-1.569 0.02816-3.2063 0.63518-5.0625 0.65625-3.5671 0.04049-5.401 3.3424-6.25 6.0625-0.60091 6.6204-0.71003 6.2067 2.3125 10.406 0.17466 0.1666 0.53845-0.31716 0.96875-0.53125 2.4169-1.2025 7.8515-3.1882 9.5625-0.9375 4.952 6.5141 4.5281 13.502-12.938 23.844-3.1092 1.8411-1.4138 7.4216-1 7.8438 1.2594 1.2846 2.955 2.7038 4.7812 2.3125 13.411-2.8737 23.438-12.775 23.438-25.531 0.29578-15.274-4.8294-24.322-15.812-24.125z" fill="#c81221"/>
<path transform="matrix(-.61777 .78636 .78636 .61777 82.367 -85.213)" d="m340.64 486.67c0 3.4993-3.5804 4.4437-7.8683 4.4437-4.2878 0-7.7678-2.84-7.7678-6.3393 5.0816-13.984 12.355 5.1804 15.636 1.8956z" fill="url(#e)"/>
<path transform="translate(-93.901 -7.4036)" d="m356.22 461.03c-1.4068 0.02525-2.9372 0.20744-4.625 0.59375-2.468 0.93557-3.7521 2.5328-4.6875 5.0625-0.20107 2.3435-0.35154 4.0228-0.21875 4.625 0.09278 0.42075 0.81087 1.3866 1.2812 2.0938 1.3275-0.61516 2.9684-1.322 4.8438-1.6875 1.0822-0.21094 2.1756-0.31723 3.3125-0.15625s2.4122 0.67917 3.25 1.7812c2.7101 3.5649 4.1701 7.9877 2.1875 12.562s-6.8156 9.0406-15.719 14.312c-0.6196 0.36689-0.88027 1.2543-0.8125 2.5625 0.03388 0.65408 0.18067 1.3344 0.3125 1.8125 0.04597 0.16673 0.05593 0.26912 0.09375 0.375 0.52395 0.51776 1.0838 1.0055 1.5625 1.2812 0.53081 0.30583 0.84428 0.37265 1.125 0.3125 12.662-2.7132 21.781-11.833 21.781-23.5-8e-5 -0.01042-8e-5 -0.02083 0-0.03125 0.14324-7.3968-1.0622-13.104-3.3438-16.719s-5.4287-5.3695-10.344-5.2812z" fill="#991916"/>
<path transform="matrix(-.56733 -.27933 -.27933 .56733 552.3 270.33)" d="m278.55 467.55c-0.55619 4.4044-3.3733 7.927-4.3563 7.6393-0.84991-0.24877-3.9894-3.0499-4.3563-7.2605-0.26927-3.09 2.6486-3.9775 4.3563-3.9775 1.7077 0 4.3563 0.49699 4.3563 3.5987z" fill="#fcd465"/>
<path transform="matrix(-.54107 .084866 .084866 .54107 366.31 182.89)" d="m278.55 467.55c-0.55619 4.4044-3.3733 7.927-4.3563 7.6393-0.84991-0.24877-3.9894-3.0499-4.3563-7.2605-0.26927-3.09 2.6486-3.9775 4.3563-3.9775 1.7077 0 4.3563 0.49699 4.3563 3.5987z" fill="#fcd465"/>
<path transform="matrix(-.30573 -.56225 -.56225 .30573 619.02 476.99)" d="m278.55 467.55c-0.55619 4.4044-3.3733 7.927-4.3563 7.6393-0.84991-0.24877-3.9894-3.0499-4.3563-7.2605-0.26927-3.09 2.6486-3.9775 4.3563-3.9775 1.7077 0 4.3563 0.49699 4.3563 3.5987z" fill="#fcd465"/>
<path transform="matrix(.053846 -.52677 -.52677 -.053846 504.92 645.93)" d="m278.55 467.55c-0.55619 4.4044-3.3733 7.927-4.3563 7.6393-0.84991-0.24877-3.9894-3.0499-4.3563-7.2605-0.26927-3.09 2.6486-3.9775 4.3563-3.9775 1.7077 0 4.3563 0.49699 4.3563 3.5987z" fill="#fcd465"/>
<path transform="matrix(.35966 -.52937 -.52937 -.35966 419.33 798.44)" d="m278.55 467.55c-0.55619 4.4044-3.3733 7.927-4.3563 7.6393-0.84991-0.24877-3.9894-3.0499-4.3563-7.2605-0.26927-3.09 2.6486-3.9775 4.3563-3.9775 1.7077 0 4.3563 0.49699 4.3563 3.5987z" fill="#fcd465"/>
<path transform="matrix(.37663 -.4224 -.4224 -.37663 359.13 783.27)" d="m278.55 467.55c-0.55619 4.4044-3.3733 7.927-4.3563 7.6393-0.84991-0.24877-3.9894-3.0499-4.3563-7.2605-0.26927-3.09 2.6486-3.9775 4.3563-3.9775 1.7077 0 4.3563 0.49699 4.3563 3.5987z" fill="#fcd465"/>
<path transform="matrix(.41584 -.29226 -.29226 -.41584 279.85 770.34)" d="m278.55 467.55c-0.55619 4.4044-3.3733 7.927-4.3563 7.6393-0.84991-0.24877-3.9894-3.0499-4.3563-7.2605-0.26927-3.09 2.6486-3.9775 4.3563-3.9775 1.7077 0 4.3563 0.49699 4.3563 3.5987z" fill="#fcd465"/>
</g>
<g transform="matrix(1.1448 0 0 1.1448 528.86 -146.88)">
<path transform="matrix(1.0642 0 0 1.5733 -300.98 -479.18)" d="m-104.5 409.49a21.75 9.375 0 1 1-43.5 0 21.75 9.375 0 1 1 43.5 0z" fill-opacity=".60748" filter="url(#w)" opacity=".90476"/>
<path transform="matrix(1 0 0 1.1267 -633.46 -376.3)" d="m176.19 461.21c0.54636-1.0356 2.9779-0.65913 3.8032-1.2293 11.287-7.798 8.5098 3.6099 9.4608-0.1183 9.503-7.6388 2.2954-6.2804 10.305-7.0229 10.201-0.94564 1.117 14.26 25.663 11.15 0.35378-0.04481 1.395 2.2834 1.517 2.5868-0.19362 8.9373-4.0261 15.471-9.5814 19.736-5.3653 4.1187-12.338 6.1204-19.19 6.1255-8.2717 0.00615-16.37-2.8966-21.258-8.4966-4.0003-4.5828-6.6268-11.678-3.6934-19.893 0.2556-0.71576 2.6305-2.1068 2.9733-2.8386z" fill="#df2a1d"/>
<path transform="matrix(.3731 .27022 -.54058 .24709 -269.9 -34.654)" d="m264.88 439.97c-4.3715 0.03774-9.4097 1.2621-15.125 3.9062-1.3562 0.62744-2.9818 0.89008-4.5312 0.71875v67.125c0.20037 0.00254 0.3927 0.03125 0.59375 0.03125 22.671 0 41.438-16.196 41.438-36.156 0.39944-20.627-6.7624-35.76-22.375-35.625z" fill="#bc1c19"/>
<path transform="matrix(.3731 .27022 -.54058 .24709 -269.9 -34.654)" d="m263.56 442.44c-4.0695 0.03513-8.7421 1.1948-14.062 3.6562-1.2828 0.59344-2.818 0.79933-4.2812 0.625v62.531c0.20853 0.00296 0.41568 0 0.625 0 21.105 0 38.563-15.075 38.562-33.656 0.37184-19.202-6.3097-33.282-20.844-33.156z" fill="url(#c)"/>
<path transform="matrix(.3731 .27022 -.54058 .24709 -269.9 -34.654)" d="m263.56 442.44c-4.0695 0.03513-8.7421 1.1948-14.062 3.6562-1.2828 0.59344-2.818 0.79933-4.2812 0.625v62.531c0.20853 0.00296 0.41568 0 0.625 0 21.105 0 38.563-15.075 38.562-33.656 0.37184-19.202-6.3097-33.282-20.844-33.156z" fill="url(#i)"/>
<path transform="matrix(-.3731 -.27022 -.54058 .24709 -86.885 97.895)" d="m264.88 439.97c-4.3715 0.03774-9.4097 1.2621-15.125 3.9062-1.3562 0.62744-2.9818 0.89008-4.5312 0.71875v67.125c0.20037 0.00254 0.3927 0.03125 0.59375 0.03125 22.671 0 41.438-16.196 41.438-36.156 0.39944-20.627-6.7624-35.76-22.375-35.625z" fill="#bc1c19"/>
<path transform="matrix(-.3731 -.27022 -.54058 .24709 -86.885 97.895)" d="m263.56 442.44c-4.0695 0.03513-8.7421 1.1948-14.062 3.6562-1.2828 0.59344-2.818 0.79933-4.2812 0.625v62.531c0.20853 0.00296 0.41568 0 0.625 0 21.105 0 38.563-15.075 38.562-33.656 0.37184-19.202-6.3097-33.282-20.844-33.156z" fill="url(#c)"/>
<path transform="matrix(.40687 .29468 -.9804 .44813 -65.226 -138.41)" d="m266.61 479.95a20.714 13.482 0 1 1-41.429 0 20.714 13.482 0 1 1 41.429 0z" fill="url(#h)"/>
<path transform="matrix(-.3731 -.27022 -.54058 .24709 -86.885 97.895)" d="m263.56 442.44c-4.0695 0.03513-8.7421 1.1948-14.062 3.6562-1.2828 0.59344-2.818 0.79933-4.2812 0.625v62.531c0.20853 0.00296 0.41568 0 0.625 0 21.105 0 38.563-15.075 38.562-33.656 0.37184-19.202-6.3097-33.282-20.844-33.156z" fill="url(#g)"/>
<path transform="matrix(.40687 .29468 -.35766 .16348 -372.51 2.0405)" d="m266.61 479.95a20.714 13.482 0 1 1-41.429 0 20.714 13.482 0 1 1 41.429 0z" fill="url(#f)"/>
<path transform="matrix(-.3731 -.27022 -.54058 .24709 -47.88 121.42)" d="m356.19 458.94c-1.569 0.02816-3.2223 0.41237-5.0625 0.65625-2.8659 0.37982-5.0224 3.1309-6.25 6.0625-0.60091 6.6204-0.71003 6.2067 2.3125 10.406 0.17466 0.1666 0.53845-0.31716 0.96875-0.53125 2.4169-1.2025 7.8515-3.1882 9.5625-0.9375 4.952 6.5141 4.5281 13.502-12.938 23.844-3.1092 1.8411-1.4138 7.4216-1 7.8438 1.2594 1.2846 2.955 2.7038 4.7812 2.3125 13.411-2.8737 23.438-12.775 23.438-25.531 0.29578-15.274-4.8294-24.322-15.812-24.125z" fill="#e42b26"/>
<path transform="matrix(-.1946 .36124 -.62734 -.059843 -71.583 54.559)" d="m340.64 486.67c0 3.4993-3.5804 4.4437-7.8683 4.4437-4.2878 0-7.7678-2.84-7.7678-6.3393 5.0816-13.984 12.355 5.1804 15.636 1.8956z" fill="url(#n)"/>
<path transform="matrix(-.3731 -.27022 -.54058 .24709 -47.88 121.42)" d="m356.22 461.03c-1.4068 0.02525-2.9372 0.20744-4.625 0.59375-3.3171 1.3525-4.2192 2.5167-4.6875 5.0625-0.20107 2.3435-0.35154 4.0228-0.21875 4.625 0.09278 0.42075 0.81087 1.3866 1.2812 2.0938 1.3275-0.61516 2.9684-1.322 4.8438-1.6875 1.0822-0.21094 2.1756-0.31723 3.3125-0.15625s2.4122 0.67917 3.25 1.7812c2.7101 3.5649 4.1701 7.9877 2.1875 12.562s-6.8156 9.0406-15.719 14.312c-0.6196 0.36689-0.88027 1.2543-0.8125 2.5625 0.03388 0.65408 0.18067 1.3344 0.3125 1.8125 0.04597 0.16673 0.05593 0.26912 0.09375 0.375 0.52395 0.51776 1.0838 1.0055 1.5625 1.2812 0.53081 0.30583 0.84428 0.37265 1.125 0.3125 12.662-2.7132 21.781-11.833 21.781-23.5-8e-5 -0.01042-8e-5 -0.02083 0-0.03125 0.14324-7.3968-1.0622-13.104-3.3438-16.719s-5.4287-5.3695-10.344-5.2812z" fill="#cc171c"/>
<path transform="matrix(.36267 .084283 -.20247 .21566 -439.11 15.424)" d="m278.55 467.55c-0.55619 4.4044-3.3733 7.927-4.3563 7.6393-0.84991-0.24877-3.9894-3.0499-4.3563-7.2605-0.26927-3.09 2.6486-3.9775 4.3563-3.9775 1.7077 0 4.3563 0.49699 4.3563 3.5987z" fill="#fcd465"/>
<path transform="matrix(.156 .16718 -.32416 .11076 -322.46 44.077)" d="m278.55 467.55c-0.55619 4.4044-3.3733 7.927-4.3563 7.6393-0.84991-0.24877-3.9894-3.0499-4.3563-7.2605-0.26927-3.09 2.6486-3.9775 4.3563-3.9775 1.7077 0 4.3563 0.49699 4.3563 3.5987z" fill="#fcd465"/>
<path transform="matrix(.41801 -.056313 .044501 .22747 -575.72 48.461)" d="m278.55 467.55c-0.55619 4.4044-3.3733 7.927-4.3563 7.6393-0.84991-0.24877-3.9894-3.0499-4.3563-7.2605-0.26927-3.09 2.6486-3.9775 4.3563-3.9775 1.7077 0 4.3563 0.49699 4.3563 3.5987z" fill="#fcd465"/>
<path transform="matrix(.26467 -.14471 .22564 .12904 -624.48 121.04)" d="m278.55 467.55c-0.55619 4.4044-3.3733 7.927-4.3563 7.6393-0.84991-0.24877-3.9894-3.0499-4.3563-7.2605-0.26927-3.09 2.6486-3.9775 4.3563-3.9775 1.7077 0 4.3563 0.49699 4.3563 3.5987z" fill="#fcd465"/>
<path transform="matrix(.15198 -.22799 .39193 .05418 -674.99 181.85)" d="m278.55 467.55c-0.55619 4.4044-3.3733 7.927-4.3563 7.6393-0.84991-0.24877-3.9894-3.0499-4.3563-7.2605-0.26927-3.09 2.6486-3.9775 4.3563-3.9775 1.7077 0 4.3563 0.49699 4.3563 3.5987z" fill="#fcd465"/>
<path transform="matrix(.087824 -.20614 .36119 .02108 -644.33 194.37)" d="m278.55 467.55c-0.55619 4.4044-3.3733 7.927-4.3563 7.6393-0.84991-0.24877-3.9894-3.0499-4.3563-7.2605-0.26927-3.09 2.6486-3.9775 4.3563-3.9775 1.7077 0 4.3563 0.49699 4.3563 3.5987z" fill="#fcd465"/>
<path transform="matrix(.0028429 -.18459 .33384 -.023776 -607.76 212.6)" d="m278.55 467.55c-0.55619 4.4044-3.3733 7.927-4.3563 7.6393-0.84991-0.24877-3.9894-3.0499-4.3563-7.2605-0.26927-3.09 2.6486-3.9775 4.3563-3.9775 1.7077 0 4.3563 0.49699 4.3563 3.5987z" fill="#fcd465"/>
<path transform="matrix(.40166 .29091 -.47909 .21898 -339.09 -56.178)" d="m306.41 473.53c3.0534-16.967 18.328-26.718 31.002-13.833 0.36009-1.8769 1.2197-2.0291 0.36357-2.8168-12.323-11.338-31.202-1.39-31.365 16.65z" fill="url(#b)"/>
<path transform="matrix(-.40166 -.29091 -.47909 .21898 -66.095 141.54)" d="m306.41 473.53c3.0534-16.967 18.328-26.718 31.002-13.833 0.36009-1.8769 1.2197-2.0291 0.36357-2.8168-12.323-11.338-31.202-1.39-31.365 16.65z" fill="url(#b)"/>
<path transform="matrix(.43232 .31311 -.42062 .19226 -376.18 -51.53)" d="m334.72 448.25c-0.27668 0.54866-0.4375 1.1502-0.4375 1.7812 0 2.5629 2.52 4.6562 5.625 4.6562 3.105 0 5.625-2.0934 5.625-4.6562 0-0.63105-0.16082-1.2326-0.4375-1.7812-0.84367 1.0373-2.9959 0.17474-5.3416 0.17474-2.3457 0-4.1897 0.86254-5.0334-0.17474z" fill="#fed482"/>
<path transform="matrix(.43232 .31311 -.42062 .19226 -376.06 -51.655)" d="m331.83 447.42c-0.27668 0.54866 2.447 1.9789 2.447 2.61 2.6234-1.8586 9.6495 0.08668 11.25 0 0-0.63105 1.8299-1.5083 1.5532-2.0569-0.09965 0.12252-2.2083 0.49438-2.3427 0.56876-1.0033 0.5553-2.9232-0.10559-4.9918-0.10559-1.9716 0-3.5873 0.60035-4.5534 0.17589-0.18331-0.08053-3.2277-1.0267-3.3623-1.1921z" fill="#bc1c19"/>
<path transform="matrix(.3731 .27022 -.49719 .22726 -290.18 -25.347)" d="m244.62 443.66c-4.6313-0.24633-1.3274 2.2346-1.8438 7.6562 1.0164 6.7856-4.5245 18.839 1.1964 18.948 0.35372 0.00679 0.85256-2.1583 1.1473-2.1982 0.02776 0.00427 0.06533-0.00385 0.09375 0 0.29476 0.03991 0.43646 2.205 0.79018 2.1982 5.7209-0.10971 0.53718-12.163 1.5536-18.948-0.38996-5.5166 2.7838-6.8366-1.8438-7.6562-0.17024 0-0.33383 0.01999-0.5 0.03125-0.03127-0.0018-0.0627 0.0021-0.09375 0-0.16617-0.01126-0.32976-0.03125-0.5-0.03125z" fill="url(#m)"/>
<path transform="matrix(.3731 .27022 -.68391 .31261 -202.81 -65.283)" d="m244.25 467.88c-2.9214 0-5.2813 5.751-5.2812 12.812-1e-5 7.0614 2.3598 12.781 5.2812 12.781 0.32317 0 0.63064-0.08436 0.9375-0.21875 0.29853 0.12726 0.59206 0.21875 0.90625 0.21875 2.9214 0 5.2813-5.7198 5.2812-12.781 0-7.0614-2.3598-12.812-5.2812-12.812-0.31419 0-0.60772 0.09149-0.90625 0.21875-0.30686-0.13439-0.61434-0.21875-0.9375-0.21875z" fill="url(#d)"/>
<path transform="matrix(.3731 .27022 -.54058 .24709 -300.9 -61.835)" d="m356.19 458.94c-1.569 0.02816-3.2063 0.63518-5.0625 0.65625-3.5671 0.04049-5.401 3.3424-6.25 6.0625-0.60091 6.6204-0.71003 6.2067 2.3125 10.406 0.17466 0.1666 0.53845-0.31716 0.96875-0.53125 2.4169-1.2025 7.8515-3.1882 9.5625-0.9375 4.952 6.5141 4.5281 13.502-12.938 23.844-3.1092 1.8411-1.4138 7.4216-1 7.8438 1.2594 1.2846 2.955 2.7038 4.7812 2.3125 13.411-2.8737 23.438-12.775 23.438-25.531 0.29578-15.274-4.8294-24.322-15.812-24.125z" fill="#c81221"/>
<path transform="matrix(-.65558 .027368 -.040569 .36514 -193.07 -33.43)" d="m340.64 486.67c0 3.4993-3.5804 4.4437-7.8683 4.4437-4.2878 0-7.7678-2.84-7.7678-6.3393 5.0816-13.984 12.355 5.1804 15.636 1.8956z" fill="url(#l)"/>
<path transform="matrix(.3731 .27022 -.54058 .24709 -300.9 -61.835)" d="m356.22 461.03c-1.4068 0.02525-2.9372 0.20744-4.625 0.59375-2.468 0.93557-3.7521 2.5328-4.6875 5.0625-0.20107 2.3435-0.35154 4.0228-0.21875 4.625 0.09278 0.42075 0.81087 1.3866 1.2812 2.0938 1.3275-0.61516 2.9684-1.322 4.8438-1.6875 1.0822-0.21094 2.1756-0.31723 3.3125-0.15625s2.4122 0.67917 3.25 1.7812c2.7101 3.5649 4.1701 7.9877 2.1875 12.562s-6.8156 9.0406-15.719 14.312c-0.6196 0.36689-0.88027 1.2543-0.8125 2.5625 0.03388 0.65408 0.18067 1.3344 0.3125 1.8125 0.04597 0.16673 0.05593 0.26912 0.09375 0.375 0.52395 0.51776 1.0838 1.0055 1.5625 1.2812 0.53081 0.30583 0.84428 0.37265 1.125 0.3125 12.662-2.7132 21.781-11.833 21.781-23.5-8e-5 -0.01042-8e-5 -0.02083 0-0.03125 0.14324-7.3968-1.0622-13.104-3.3438-16.719s-5.4287-5.3695-10.344-5.2812z" fill="#991916"/>
<path transform="matrix(-.060668 -.22232 -.4109 .064702 -209.94 181.41)" d="m278.55 467.55c-0.55619 4.4044-3.3733 7.927-4.3563 7.6393-0.84991-0.24877-3.9894-3.0499-4.3563-7.2605-0.26927-3.09 2.6486-3.9775 4.3563-3.9775 1.7077 0 4.3563 0.49699 4.3563 3.5987z" fill="#fcd465"/>
<path transform="matrix(-.24775 -.12524 -.26083 .15663 -232.06 109.55)" d="m278.55 467.55c-0.55619 4.4044-3.3733 7.927-4.3563 7.6393-0.84991-0.24877-3.9894-3.0499-4.3563-7.2605-0.26927-3.09 2.6486-3.9775 4.3563-3.9775 1.7077 0 4.3563 0.49699 4.3563 3.5987z" fill="#fcd465"/>
<path transform="matrix(.18987 -.22154 -.37504 -.076387 -296.76 250.5)" d="m278.55 467.55c-0.55619 4.4044-3.3733 7.927-4.3563 7.6393-0.84991-0.24877-3.9894-3.0499-4.3563-7.2605-0.26927-3.09 2.6486-3.9775 4.3563-3.9775 1.7077 0 4.3563 0.49699 4.3563 3.5987z" fill="#fcd465"/>
<path transform="matrix(.30485 -.11561 -.16743 -.15565 -430.66 261.41)" d="m278.55 467.55c-0.55619 4.4044-3.3733 7.927-4.3563 7.6393-0.84991-0.24877-3.9894-3.0499-4.3563-7.2605-0.26927-3.09 2.6486-3.9775 4.3563-3.9775 1.7077 0 4.3563 0.49699 4.3563 3.5987z" fill="#fcd465"/>
<path transform="matrix(.42036 -.033618 -.0030843 -.23192 -545.04 275.97)" d="m278.55 467.55c-0.55619 4.4044-3.3733 7.927-4.3563 7.6393-0.84991-0.24877-3.9894-3.0499-4.3563-7.2605-0.26927-3.09 2.6486-3.9775 4.3563-3.9775 1.7077 0 4.3563 0.49699 4.3563 3.5987z" fill="#fcd465"/>
<path transform="matrix(.36886 -.0025997 .046001 -.2072 -559.3 255.95)" d="m274.19 463.94c-1.7077 0-4.613 0.91006-4.3438 4 0.36692 4.2106 3.4938 7.0012 4.3438 7.25 0.98296 0.28771 3.8188-3.2206 4.375-7.625 0-3.1017-2.6673-3.625-4.375-3.625z" fill="#fcd465"/>
<path transform="matrix(.31314 .040153 .11575 -.18173 -581.89 231.33)" d="m278.55 467.55c-0.55619 4.4044-3.3733 7.927-4.3563 7.6393-0.84991-0.24877-3.9894-3.0499-4.3563-7.2605-0.26927-3.09 2.6486-3.9775 4.3563-3.9775 1.7077 0 4.3563 0.49699 4.3563 3.5987z" fill="#fcd465"/>
<path transform="translate(-631.69 -302.55)" d="m224.53 455.53c-14.808 16.53-46.918 14.153-52.947 0.27198-0.1119-0.26167-0.24521-0.23307-0.31929-0.23002-0.58498 0.11853-0.61799 0.63373-0.61536 0.99021 0.30889 7.1043 4.7549 15.096 10.288 18.906 5.508 3.7931 12.577 5.5148 19.25 4.3438 0.0325-0.00307 0.06128-0.02805 0.09375-0.03125 9.3234-0.91959 17.78-7.079 21.507-15.495 1.2323-3.3365 2.2328-5.6678 2.743-8.7555z" fill="url(#k)"/>
<path transform="matrix(.36267 .084283 -.20247 .21566 -439.11 15.424)" d="m274.19 464.97c-0.67295 0-1.673 0.20193-2.3438 0.65625s-1.1064 0.99793-1 2.2188c0.16343 1.8755 0.96779 3.4584 1.8125 4.5938 0.42236 0.56765 0.86078 1.0337 1.2188 1.3438 0.26992 0.23379 0.36973 0.29897 0.4375 0.34375 0.06071-0.03646 0.11028-0.06237 0.21875-0.15625 0.30785-0.26645 0.74604-0.74164 1.1562-1.375 0.80241-1.2389 1.571-3.0608 1.8438-5.0312 0-1.259-0.40423-1.7244-1.0312-2.0938s-1.5627-0.5-2.3125-0.5z" fill="#d1ab44"/>
<path transform="matrix(.156 .16718 -.32416 .11076 -322.46 44.077)" d="m274.19 465.06c-0.6542 0-1.6349 0.21846-2.2812 0.65625s-1.041 0.93778-0.9375 2.125c0.16136 1.8516 0.94577 3.4084 1.7812 4.5312 0.41774 0.56144 0.83579 1.0079 1.1875 1.3125 0.2504 0.21689 0.33355 0.23365 0.40625 0.28125 0.04869-0.03374 0.05989-0.0374 0.125-0.09375 0.29697-0.25703 0.71898-0.71687 1.125-1.3438 0.80259-1.2392 1.5501-3.086 1.8125-5.0625-0.02686-1.1302-0.38946-1.565-0.96875-1.9062-0.60077-0.35389-1.511-0.5-2.25-0.5z" fill="#d1ab44"/>
<path transform="matrix(.41801 -.056313 .044501 .22747 -575.72 48.461)" d="m274.19 465.06c-0.65655 0-1.6318 0.18514-2.2812 0.625s-1.0726 0.96482-0.96875 2.1562c0.16162 1.8546 0.94462 3.4068 1.7812 4.5312 0.41832 0.56222 0.86626 1.0072 1.2188 1.3125 0.25352 0.21959 0.33505 0.26564 0.40625 0.3125 0.05048-0.03459 0.05615-0.03416 0.125-0.09375 0.29834-0.25821 0.71846-0.74731 1.125-1.375 0.79504-1.2275 1.573-3.0146 1.8438-4.9688 0-1.2325-0.39595-1.6754-1-2.0312s-1.5096-0.46875-2.25-0.46875z" fill="#d1ab44"/>
<path transform="matrix(.26467 -.14471 .22564 .12904 -624.48 121.04)" d="m274.19 465.34c-0.60366 0-1.5444 0.20052-2.125 0.59375s-0.90806 0.77836-0.8125 1.875c0.15576 1.7874 0.90818 3.3168 1.7188 4.4062 0.40529 0.54471 0.82143 0.96 1.1562 1.25 0.13611 0.11789 0.08351 0.09202 0.1875 0.15625 0.26723-0.24002 0.65249-0.6652 1.0312-1.25 0.77585-1.1979 1.5211-2.9916 1.7812-4.9062-0.02498-1.0363-0.30398-1.3567-0.8125-1.6562-0.52999-0.3122-1.415-0.46875-2.125-0.46875z" fill="#d1ab44"/>
<path transform="matrix(.15198 -.22799 .39193 .05418 -674.99 181.85)" d="m274.19 465.31c-0.60843 0-1.5382 0.22755-2.125 0.625s-0.94006 0.7698-0.84375 1.875c0.15629 1.7935 0.90582 3.3137 1.7188 4.4062 0.40646 0.54629 0.81983 0.98986 1.1562 1.2812 0.16137 0.13977 0.1127 0.12332 0.21875 0.1875 0.27042-0.23405 0.66672-0.70143 1.0625-1.3125 0.77795-1.2011 1.5205-2.987 1.7812-4.9062-0.02483-1.0469-0.32823-1.3838-0.84375-1.6875-0.53668-0.31614-1.4123-0.46875-2.125-0.46875z" fill="#d1ab44"/>
<path transform="matrix(.087824 -.20614 .36119 .02108 -644.33 194.37)" d="m274.19 465.31c-0.61191 0-1.565 0.19324-2.1562 0.59375s-0.9406 0.79482-0.84375 1.9062c0.15667 1.7979 0.93536 3.3426 1.75 4.4375 0.40732 0.54744 0.81867 0.95761 1.1562 1.25 0.17565 0.15214 0.14611 0.12484 0.25 0.1875 0.27206-0.24117 0.67616-0.68475 1.0625-1.2812 0.77092-1.1903 1.512-2.9455 1.7812-4.8438 0-0.01441 1e-4 -0.01709 0-0.03125-0.0082-1.1256-0.34018-1.4662-0.875-1.7812-0.54155-0.319-1.4103-0.4375-2.125-0.4375z" fill="#d1ab44"/>
<path transform="matrix(.0028429 -.18459 .33384 -.023776 -607.76 212.6)" d="m274.19 465.22c-0.62431 0-1.5801 0.21356-2.1875 0.625s-0.97379 0.8351-0.875 1.9688c0.15805 1.8136 0.92925 3.3657 1.75 4.4688 0.41037 0.55155 0.84578 0.98527 1.1875 1.2812 0.19478 0.16871 0.1807 0.15772 0.28125 0.21875 0.01676-0.01352 0.01332-0.01574 0.03125-0.03125 0.27963-0.24203 0.66317-0.69594 1.0625-1.3125 0.78917-1.2184 1.5538-3.0221 1.8125-4.9688-0.02582-1.075-0.33758-1.4647-0.875-1.7812-0.55891-0.32923-1.4657-0.46875-2.1875-0.46875z" fill="#d1ab44"/>
<path transform="matrix(-.060668 -.22232 -.4109 .064702 -209.94 181.41)" d="m274.19 465c-0.66413 0-1.6532 0.20971-2.3125 0.65625s-1.0738 0.98248-0.96875 2.1875c0.16246 1.8642 0.94088 3.433 1.7812 4.5625 0.42018 0.56473 0.86373 1.0362 1.2188 1.3438 0.26526 0.22976 0.37336 0.26913 0.4375 0.3125 0.05514-0.03664 0.07701-0.05642 0.15625-0.125 0.30273-0.26202 0.71676-0.74469 1.125-1.375 0.80805-1.2476 1.6124-3.0733 1.875-5.0625-0.01762-1.1826-0.43027-1.646-1.0312-2-0.61467-0.36208-1.5365-0.5-2.2812-0.5z" fill="#d1ab44"/>
<path transform="matrix(-.24775 -.12524 -.26083 .15663 -232.06 109.55)" d="m274.19 465.44c-0.58722 0-1.5033 0.215-2.0625 0.59375s-0.87425 0.71406-0.78125 1.7812c0.15394 1.7665 0.88502 3.2652 1.6875 4.3438 0.40124 0.53927 0.82692 0.96475 1.1562 1.25 0.09653 0.08361 0.03867 0.0376 0.125 0.09375 0.2576-0.23919 0.60873-0.63164 0.96875-1.1875 0.76848-1.1865 1.4918-2.9454 1.75-4.8438-0.02385-1.0071-0.29536-1.3075-0.78125-1.5938-0.50698-0.29864-1.362-0.4375-2.0625-0.4375z" fill="#d1ab44"/>
<path transform="matrix(.18987 -.22154 -.37504 -.076387 -296.76 250.5)" d="m274.19 465.06c-0.65131 0-1.6387 0.22101-2.2812 0.65625s-1.0405 0.94297-0.9375 2.125c0.16103 1.848 0.9472 3.4103 1.7812 4.5312 0.41702 0.56049 0.83676 1.0087 1.1875 1.3125 0.24971 0.21629 0.33547 0.23454 0.40625 0.28125 0.04632-0.03255 0.06455-0.04143 0.125-0.09375 0.29529-0.25558 0.68838-0.74912 1.0938-1.375 0.80131-1.2372 1.5818-3.0576 1.8438-5.0312-0.02719-1.1234-0.39387-1.5676-0.96875-1.9062-0.59671-0.3515-1.5126-0.5-2.25-0.5z" fill="#d1ab44"/>
<path transform="matrix(.30485 -.11561 -.16743 -.15565 -430.66 261.41)" d="m274.19 465.12c-0.64443 0-1.6164 0.19583-2.25 0.625s-1.0082 0.92405-0.90625 2.0938c0.16027 1.8392 0.91934 3.3836 1.75 4.5 0.41533 0.55821 0.83906 1.0107 1.1875 1.3125 0.22617 0.19589 0.28523 0.19415 0.375 0.25 0.03956-0.02883 0.0452-0.02048 0.09375-0.0625 0.2913-0.25212 0.68992-0.72025 1.0938-1.3438 0.78553-1.2128 1.5707-3.007 1.8438-4.9375 0-0.01393 1e-4 -0.01753 0-0.03125-0.0086-1.1806-0.38842-1.5956-0.96875-1.9375-0.58708-0.34582-1.4854-0.46875-2.2188-0.46875z" fill="#d1ab44"/>
<path transform="matrix(.42036 -.033618 -.0030843 -.23192 -545.04 275.97)" d="m274.19 465.09c-0.64582 0-1.6146 0.22585-2.25 0.65625s-1.0396 0.92155-0.9375 2.0938c0.16043 1.841 0.9499 3.3827 1.7812 4.5 0.41567 0.55867 0.83859 1.0103 1.1875 1.3125 0.23567 0.20413 0.29325 0.22933 0.375 0.28125 0.04261-0.03052 0.03982-0.04707 0.09375-0.09375 0.29211-0.25283 0.72086-0.71976 1.125-1.3438 0.79889-1.2334 1.5512-3.063 1.8125-5.0312-0.02667-1.1145-0.40127-1.5407-0.96875-1.875-0.58903-0.34697-1.4845-0.5-2.2188-0.5z" fill="#d1ab44"/>
<path transform="matrix(.36886 -.0025997 .046001 -.2072 -559.3 255.95)" d="m274.19 465.19c-0.63173 0-1.6016 0.20702-2.2188 0.625s-0.97495 0.8843-0.875 2.0312c0.15887 1.8231 0.9256 3.3607 1.75 4.4688 0.4122 0.554 0.8433 0.98312 1.1875 1.2812 0.19032 0.16485 0.17538 0.15455 0.28125 0.21875 0.02756-0.02121 0.03127-0.00422 0.0625-0.03125 0.28394-0.24575 0.72401-0.69338 1.125-1.3125 0.79255-1.2237 1.5217-3.0458 1.7812-5-0.02595-1.0894-0.35832-1.4897-0.90625-1.8125-0.5693-0.33535-1.4614-0.46875-2.1875-0.46875z" fill="#d1ab44"/>
<path transform="matrix(.31314 .040153 .11575 -.18173 -581.89 231.33)" d="m274.19 465.62c-0.55229 0-1.455 0.21455-1.9688 0.5625s-0.77504 0.58917-0.6875 1.5938c0.15007 1.7221 0.87099 3.1946 1.6562 4.25 0.38218 0.51365 0.78002 0.91215 1.0938 1.1875 0.23523-0.23758 0.53435-0.5223 0.84375-1 0.75297-1.1626 1.4649-2.9171 1.7188-4.7812-0.0282-0.90492-0.25672-1.1212-0.6875-1.375-0.45807-0.26983-1.2883-0.4375-1.9688-0.4375z" fill="#d1ab44"/>
<path transform="matrix(.43232 .31311 -.42062 .19226 -376.18 -51.53)" d="m334.72 448.25c-0.27668 0.54866-0.4375 1.1502-0.4375 1.7812 0 2.5629 2.52 4.6562 5.625 4.6562 3.105 0 5.625-2.0934 5.625-4.6562 0-0.63105-0.16082-1.2326-0.4375-1.7812-0.84367 1.0373-2.998 0.1875-5.3438 0.1875-2.3457 0-4.1876 0.84978-5.0312-0.1875z" fill="url(#j)"/>
<path transform="matrix(.43232 .31311 -.42062 .19226 -376.18 -51.53)" d="m339.75 449.47c-1.048 0-2.0213 0.18996-2.9688 0.28125-0.44349 0.04273-0.91129 0.04854-1.375-0.03125-0.01298 0.10753-0.09375 0.20307-0.09375 0.3125 0 1.885 1.9535 3.625 4.5938 3.625 2.6402 0 4.5937-1.74 4.5938-3.625 0-0.10943-0.08077-0.20497-0.09375-0.3125-0.51707 0.09581-0.99026 0.07627-1.5 0.03125-1.0195-0.09005-2.1083-0.28125-3.1562-0.28125z" fill="#ecdfc1"/>
</g>
</svg>
